{"glyphs":{"0":{"ha":964,"x_min":0,"x_max":0,"o":"m 64 479 b 482 -14 64 179 232 -14 b 899 479 732 -14 899 178 b 482 972 899 779 732 972 b 64 479 232 972 64 779 z m 751 479 b 482 117 751 253 657 117 b 213 479 308 117 213 253 b 482 840 213 706 308 840 b 751 479 657 840 751 706 z "},"1":{"ha":490,"x_min":0,"x_max":0,"o":"m 240 949 l 51 851 l 51 719 l 232 806 l 232 0 l 375 0 l 375 949 z "},"2":{"ha":765,"x_min":0,"x_max":0,"o":"m 94 767 b 350 840 175 817 257 840 b 538 704 478 840 538 778 b 374 483 538 621 492 578 l 219 357 b 47 49 106 265 47 165 l 47 0 l 703 0 l 703 126 l 215 126 b 336 286 225 182 264 226 l 511 429 b 682 722 613 513 682 596 b 374 972 682 864 561 972 b 94 906 268 972 172 947 z "},"3":{"ha":765,"x_min":0,"x_max":0,"o":"m 58 51 b 335 -14 138 7 235 -14 b 700 267 536 -14 700 96 b 514 493 700 396 610 467 b 686 715 606 522 686 596 b 346 972 686 871 538 972 b 68 899 236 972 143 944 l 68 765 b 336 840 144 811 240 840 b 544 694 458 840 544 788 b 351 550 544 601 468 550 l 208 550 l 208 435 l 350 435 b 554 279 475 435 554 383 b 321 117 554 176 468 117 b 58 185 247 117 160 132 z "},"4":{"ha":842,"x_min":0,"x_max":0,"o":"m 588 958 l 440 958 l 58 308 l 58 185 l 532 185 l 532 0 l 668 0 l 668 185 l 792 185 l 792 313 l 668 313 l 668 581 l 531 506 l 531 313 l 215 313 z "},"5":{"ha":792,"x_min":0,"x_max":0,"o":"m 76 47 b 379 -14 144 13 258 -14 b 732 301 586 -14 732 106 b 382 604 732 478 607 604 b 244 590 346 604 286 599 l 254 831 l 638 831 l 638 958 l 132 958 l 108 458 b 339 483 193 475 268 483 b 582 301 494 483 582 413 b 365 118 582 192 499 118 b 76 188 279 118 174 139 z "},"6":{"ha":843,"x_min":0,"x_max":0,"o":"m 786 315 b 475 618 786 489 660 617 b 213 513 378 618 288 590 b 513 840 235 697 331 840 b 649 818 568 840 613 832 l 649 954 b 507 972 610 965 567 972 b 64 432 221 972 64 719 b 435 -14 64 176 199 -14 b 786 315 639 -14 786 124 z m 433 117 b 207 407 293 117 213 231 b 431 503 269 471 339 503 b 638 315 565 503 638 425 b 433 117 638 196 558 117 z "},"7":{"ha":724,"x_min":0,"x_max":0,"o":"m 528 831 l 101 0 l 258 0 l 682 839 l 682 958 l 46 958 l 46 831 z "},"8":{"ha":836,"x_min":0,"x_max":0,"o":"m 421 -14 b 783 269 631 -14 783 101 b 551 518 783 389 701 458 b 732 738 647 560 732 633 b 422 972 732 867 613 972 b 104 718 239 972 104 856 b 268 500 104 617 164 547 b 53 249 164 461 53 379 b 421 -14 53 99 203 -14 z m 390 579 b 251 713 311 610 251 646 b 421 847 251 790 326 847 b 583 714 514 847 583 788 b 447 557 583 639 519 589 z m 419 110 b 203 275 294 110 203 178 b 367 461 203 368 286 431 l 475 418 b 633 267 594 374 633 328 b 419 110 633 171 543 110 z "},"9":{"ha":847,"x_min":0,"x_max":0,"o":"m 407 453 b 206 640 279 453 206 531 b 411 840 206 760 286 840 b 640 550 553 840 635 728 b 407 453 578 485 504 453 z m 325 -12 b 783 528 621 -12 783 240 b 411 972 783 783 646 972 b 57 642 206 972 57 833 b 376 338 57 468 186 338 b 633 432 467 338 557 365 b 319 118 607 254 506 118 b 154 154 250 118 199 131 l 154 17 b 325 -12 201 -1 253 -12 z "},"\u0000":{"ha":0,"x_min":0,"x_max":0,"o":""},"\r":{"ha":0,"x_min":0,"x_max":0,"o":""}," ":{"ha":336,"x_min":0,"x_max":0,"o":""}," ":{"ha":336,"x_min":0,"x_max":0,"o":""},"A":{"ha":985,"x_min":0,"x_max":0,"o":"m 488 811 l 679 333 l 297 333 z m 813 0 l 968 0 l 576 958 l 407 958 l 15 0 l 164 0 l 249 214 l 726 214 z "},"B":{"ha":918,"x_min":0,"x_max":0,"o":"m 115 958 l 115 0 l 501 0 b 846 269 710 0 846 107 b 658 501 846 389 774 476 b 806 710 750 533 806 610 b 490 958 806 858 679 958 z m 483 838 b 660 697 592 838 660 785 b 500 553 660 607 592 553 l 258 553 l 258 838 z m 258 119 l 258 438 l 515 438 b 696 279 625 438 696 376 b 497 119 696 178 625 119 z "},"C":{"ha":906,"x_min":0,"x_max":0,"o":"m 847 188 b 565 117 768 146 678 117 b 210 481 347 117 210 260 b 561 840 210 697 349 840 b 832 765 657 840 751 817 l 832 901 b 558 972 767 944 671 972 b 61 479 269 972 61 767 b 557 -14 61 189 267 -14 b 847 51 679 -14 768 8 z "},"D":{"ha":1010,"x_min":0,"x_max":0,"o":"m 464 831 b 800 481 669 831 800 690 b 464 126 800 263 669 126 l 258 126 l 258 831 z m 115 0 l 463 0 b 949 482 747 0 949 197 b 469 958 949 757 747 958 l 115 958 z "},"E":{"ha":819,"x_min":0,"x_max":0,"o":"m 751 831 l 751 958 l 115 958 l 115 0 l 751 0 l 751 126 l 258 126 l 258 425 l 622 425 l 622 553 l 258 553 l 258 831 z "},"F":{"ha":801,"x_min":0,"x_max":0,"o":"m 751 831 l 751 958 l 115 958 l 115 0 l 258 0 l 258 415 l 622 415 l 622 543 l 258 543 l 258 831 z "},"G":{"ha":1013,"x_min":0,"x_max":0,"o":"m 935 108 l 935 503 l 561 503 l 561 383 l 799 383 l 799 182 b 569 117 739 135 656 117 b 210 479 350 117 210 261 b 561 840 210 700 349 840 b 831 775 668 840 758 814 l 831 913 b 558 972 765 949 669 972 b 61 478 269 972 61 768 b 560 -14 61 192 263 -14 b 935 108 692 -14 839 24 z "},"H":{"ha":1046,"x_min":0,"x_max":0,"o":"m 786 0 l 931 0 l 931 958 l 786 958 l 786 536 l 258 536 l 258 958 l 115 958 l 115 0 l 258 0 l 258 408 l 786 408 z "},"I":{"ha":374,"x_min":0,"x_max":0,"o":"m 258 958 l 115 958 l 115 0 l 258 0 z "},"J":{"ha":626,"x_min":0,"x_max":0,"o":"m 53 8 b 200 -14 90 -4 154 -14 b 518 319 382 -14 518 101 l 518 958 l 374 958 l 374 317 b 193 117 374 169 297 117 b 53 136 143 117 96 122 z "},"K":{"ha":919,"x_min":0,"x_max":0,"o":"m 721 0 l 896 0 l 478 522 l 851 958 l 692 958 l 258 450 l 258 958 l 115 958 l 115 0 l 258 0 l 258 268 l 386 415 z "},"L":{"ha":821,"x_min":0,"x_max":0,"o":"m 258 958 l 115 958 l 115 0 l 758 0 l 758 126 l 258 126 z "},"M":{"ha":1200,"x_min":0,"x_max":0,"o":"m 949 958 l 603 419 l 251 958 l 115 958 l 115 0 l 258 0 l 258 707 l 544 275 l 661 275 l 942 715 l 942 0 l 1085 0 l 1085 958 z "},"N":{"ha":1035,"x_min":0,"x_max":0,"o":"m 785 0 l 921 0 l 921 958 l 776 958 l 776 231 l 250 958 l 115 958 l 115 0 l 258 0 l 258 718 z "},"O":{"ha":1106,"x_min":0,"x_max":0,"o":"m 64 478 b 551 -14 64 194 271 -14 b 1040 479 833 -14 1040 194 b 553 972 1040 764 833 972 b 64 478 271 972 64 763 z m 892 479 b 553 117 892 263 756 117 b 213 479 350 117 213 263 b 553 840 213 694 350 840 b 892 479 756 840 892 694 z "},"P":{"ha":896,"x_min":0,"x_max":0,"o":"m 489 831 b 683 650 607 831 683 760 b 489 465 683 535 607 465 l 258 465 l 258 831 z m 489 338 b 832 649 688 338 832 468 b 489 958 832 829 688 958 l 115 958 l 115 0 l 258 0 l 258 338 z "},"Q":{"ha":1106,"x_min":0,"x_max":0,"o":"m 553 117 b 213 479 350 117 213 263 b 553 840 213 694 350 840 b 892 479 756 840 892 694 b 553 117 892 263 756 117 z m 997 -206 l 1033 -83 b 538 -14 829 -96 682 -74 b 551 -14 543 -14 547 -14 b 1040 479 833 -14 1040 194 b 553 972 1040 764 833 972 b 64 478 271 972 64 763 b 461 -7 64 225 228 33 l 424 -104 b 997 -206 590 -179 790 -218 z "},"R":{"ha":907,"x_min":0,"x_max":0,"o":"m 488 831 b 675 676 603 831 675 768 b 488 518 675 582 601 518 l 258 518 l 258 831 z m 700 0 l 868 0 l 611 413 b 825 681 739 451 825 551 b 488 958 825 842 682 958 l 115 958 l 115 0 l 258 0 l 258 394 l 467 394 z "},"S":{"ha":819,"x_min":0,"x_max":0,"o":"m 64 67 b 389 -14 143 17 258 -14 b 767 263 603 -14 767 86 b 464 550 767 403 681 478 b 215 719 286 610 215 643 b 418 844 215 799 296 844 b 701 779 511 844 611 822 l 701 913 b 425 972 625 951 535 972 b 67 711 206 972 67 864 b 381 431 67 576 171 499 b 617 253 544 378 617 338 b 400 113 617 161 535 113 b 64 208 275 113 164 149 z "},"T":{"ha":839,"x_min":0,"x_max":0,"o":"m 806 831 l 806 958 l 33 958 l 33 831 l 347 831 l 347 0 l 492 0 l 492 831 z "},"U":{"ha":1006,"x_min":0,"x_max":0,"o":"m 753 958 l 753 367 b 501 117 753 213 657 117 b 251 367 347 117 251 213 l 251 958 l 108 958 l 108 369 b 501 -14 108 142 261 -14 b 897 364 743 -14 897 139 l 897 958 z "},"V":{"ha":999,"x_min":0,"x_max":0,"o":"m 986 958 l 836 958 l 503 149 l 171 958 l 13 958 l 414 0 l 582 0 z "},"W":{"ha":1407,"x_min":0,"x_max":0,"o":"m 1250 958 l 990 154 l 781 782 l 642 782 l 422 154 l 165 958 l 13 958 l 332 0 l 490 0 l 703 606 l 908 0 l 1075 0 l 1394 958 z "},"X":{"ha":917,"x_min":0,"x_max":0,"o":"m 726 0 l 894 0 l 543 478 l 896 958 l 742 958 l 465 583 l 189 958 l 21 958 l 372 481 l 18 0 l 171 0 l 451 374 z "},"Y":{"ha":928,"x_min":0,"x_max":0,"o":"m 913 958 l 753 958 l 460 518 l 168 958 l 15 958 l 392 392 l 392 0 l 536 0 l 536 392 z "},"Z":{"ha":833,"x_min":0,"x_max":0,"o":"m 54 0 l 779 0 l 779 126 l 235 126 l 772 832 l 772 949 l 64 949 l 64 821 l 589 821 l 54 115 z "},"Æ":{"ha":1349,"x_min":0,"x_max":0,"o":"m 644 335 l 357 335 l 644 829 z m 644 0 l 1281 0 l 1281 126 l 788 126 l 788 425 l 1151 425 l 1151 553 l 788 553 l 788 831 l 1281 831 l 1281 958 l 567 958 l 13 0 l 167 0 l 292 214 l 644 214 z "},"Œ":{"ha":1596,"x_min":0,"x_max":0,"o":"m 553 117 b 213 479 350 117 213 263 b 553 840 213 694 350 840 b 892 479 756 840 892 694 b 553 117 892 263 756 117 z m 892 0 l 1528 0 l 1528 126 l 1036 126 l 1036 425 l 1400 425 l 1400 553 l 1036 553 l 1036 831 l 1528 831 l 1528 958 l 892 958 l 892 797 b 553 972 824 899 708 972 b 64 478 271 972 64 763 b 549 -14 64 194 268 -14 b 892 161 703 -14 821 56 z "},"Ł":{"ha":825,"x_min":0,"x_max":0,"o":"m 763 0 l 763 126 l 263 126 l 263 446 l 529 569 l 529 682 l 263 558 l 263 958 l 118 958 l 118 492 l 13 443 l 13 329 l 118 378 l 118 0 z "},"Ø":{"ha":1106,"x_min":0,"x_max":0,"o":"m 551 -14 b 1040 479 833 -14 1040 194 b 933 797 1040 604 1001 714 l 1035 901 l 963 971 l 863 868 b 553 972 779 935 672 972 b 64 478 271 972 64 763 b 171 161 64 354 103 244 l 71 58 l 143 -10 l 242 90 b 551 -14 324 25 431 -14 z m 213 479 b 553 840 213 694 350 840 b 767 769 638 840 710 815 l 271 263 b 213 479 233 321 213 394 z m 553 117 b 338 189 468 117 394 143 l 833 696 b 892 479 871 638 892 564 b 553 117 892 263 756 117 z "},"Ð":{"ha":1014,"x_min":0,"x_max":0,"o":"m 456 428 l 456 532 l 263 532 l 263 831 l 468 831 b 803 481 674 831 803 690 b 468 126 803 263 674 126 l 263 126 l 263 428 z m 118 0 l 465 0 b 953 482 751 0 953 197 b 472 958 953 757 751 958 l 118 958 l 118 532 l 19 532 l 19 428 l 118 428 z "},"Þ":{"ha":904,"x_min":0,"x_max":0,"o":"m 489 663 b 683 483 607 663 683 593 b 489 297 683 368 607 297 l 258 297 l 258 663 z m 489 169 b 832 482 688 169 832 300 b 489 790 832 663 688 790 l 258 790 l 258 958 l 115 958 l 115 0 l 258 0 l 258 169 z "},"a":{"ha":811,"x_min":0,"x_max":0,"o":"m 571 203 b 369 86 522 126 449 86 b 200 233 271 86 200 142 b 369 376 200 321 260 376 b 571 304 444 376 517 347 z m 140 665 l 140 550 b 367 615 206 592 289 615 b 565 431 500 615 565 553 l 565 394 b 321 468 501 439 417 468 b 54 226 160 468 54 367 b 313 -14 54 85 165 -14 b 571 110 415 -14 507 28 l 571 0 l 707 0 l 707 436 b 392 726 707 618 604 726 b 140 665 292 726 203 703 z "},"b":{"ha":897,"x_min":0,"x_max":0,"o":"m 499 -14 b 840 358 693 -14 840 139 b 499 726 840 576 697 726 b 243 592 393 726 299 675 l 243 1028 l 108 1004 l 108 0 l 243 0 l 243 115 b 499 -14 299 36 397 -14 z m 469 610 b 703 358 608 610 703 515 b 469 103 703 199 608 103 b 243 233 379 103 297 149 l 243 468 b 469 610 294 558 379 610 z "},"c":{"ha":710,"x_min":0,"x_max":0,"o":"m 453 610 b 643 544 532 610 606 576 l 643 668 b 429 726 596 706 525 726 b 57 356 203 726 57 574 b 425 -14 57 138 201 -14 b 653 50 533 -14 607 17 l 653 169 b 451 101 592 125 535 101 b 194 356 282 101 194 204 b 453 610 194 507 286 610 z "},"d":{"ha":897,"x_min":0,"x_max":0,"o":"m 653 475 l 653 240 b 428 103 600 153 518 103 b 194 358 289 103 194 199 b 428 610 194 515 289 610 b 653 475 518 610 603 561 z m 653 124 l 653 0 l 789 0 l 789 1028 l 653 1004 l 653 603 b 399 726 597 676 510 726 b 57 358 200 726 57 576 b 399 -14 57 139 204 -14 b 653 124 508 -14 594 38 z "},"e":{"ha":796,"x_min":0,"x_max":0,"o":"m 414 618 b 614 413 529 618 614 540 l 194 413 b 414 618 213 547 306 618 z m 685 47 l 685 161 b 457 97 628 122 538 97 b 194 318 317 97 213 176 l 739 318 b 744 399 743 339 744 374 b 418 726 743 590 610 726 b 57 364 207 726 57 576 b 454 -14 57 142 217 -14 b 685 47 544 -14 632 10 z "},"f":{"ha":486,"x_min":0,"x_max":0,"o":"m 440 606 l 440 713 l 254 713 l 254 750 b 385 908 254 861 301 908 b 482 883 414 908 453 901 l 482 999 b 363 1028 453 1017 413 1028 b 118 747 219 1028 118 938 l 118 713 l 13 713 l 13 604 l 118 604 l 118 0 l 254 0 l 254 606 z "},"g":{"ha":897,"x_min":0,"x_max":0,"o":"m 653 478 l 653 239 b 428 103 597 153 518 103 b 194 358 289 103 194 199 b 428 610 194 515 289 610 b 653 478 518 610 603 560 z m 653 125 l 653 38 b 418 -182 653 -99 565 -182 b 271 -153 372 -182 317 -172 l 271 -268 b 429 -297 310 -286 371 -297 b 789 56 643 -297 789 -169 l 789 713 l 653 713 l 653 601 b 399 726 599 679 504 726 b 57 358 200 726 57 576 b 397 -14 57 131 204 -14 b 653 125 508 -14 596 38 z "},"h":{"ha":860,"x_min":0,"x_max":0,"o":"m 243 1028 l 108 1004 l 108 0 l 243 0 l 243 482 b 456 607 285 550 363 607 b 622 439 567 607 622 549 l 622 0 l 758 0 l 758 453 b 500 726 758 629 674 726 b 243 593 385 726 293 668 z "},"i":{"ha":351,"x_min":0,"x_max":0,"o":"m 243 1010 l 108 1010 l 108 825 l 243 825 z m 243 713 l 108 713 l 108 0 l 243 0 z "},"j":{"ha":363,"x_min":0,"x_max":0,"o":"m 118 825 l 254 825 l 254 1010 l 118 1010 z m 118 -54 b 14 -182 118 -144 81 -182 b -29 -179 0 -182 -14 -181 l -29 -287 b 51 -297 -6 -293 22 -297 b 254 -47 181 -297 254 -211 l 254 713 l 118 713 z "},"k":{"ha":782,"x_min":0,"x_max":0,"o":"m 594 0 l 760 0 l 425 400 l 725 713 l 569 713 l 243 364 l 243 1028 l 108 1004 l 108 0 l 243 0 l 243 210 l 336 306 z "},"l":{"ha":351,"x_min":0,"x_max":0,"o":"m 243 0 l 243 1028 l 108 1004 l 108 0 z "},"m":{"ha":1324,"x_min":0,"x_max":0,"o":"m 243 481 b 443 607 285 544 354 607 b 597 461 540 607 597 546 l 597 0 l 733 0 l 733 478 b 931 607 774 550 847 607 b 1086 456 1029 607 1086 547 l 1086 0 l 1222 0 l 1222 469 b 975 726 1222 629 1136 726 b 717 581 856 726 767 663 b 489 726 689 669 607 726 b 236 583 371 726 290 664 l 236 713 l 108 713 l 108 0 l 243 0 z "},"n":{"ha":860,"x_min":0,"x_max":0,"o":"m 236 713 l 108 713 l 108 0 l 243 0 l 243 481 b 456 607 285 550 363 607 b 622 439 567 607 622 549 l 622 0 l 758 0 l 758 453 b 500 726 758 629 674 726 b 236 583 378 726 286 663 z "},"o":{"ha":863,"x_min":0,"x_max":0,"o":"m 806 356 b 431 726 806 572 643 726 b 57 356 219 726 57 572 b 431 -14 57 140 219 -14 b 806 356 643 -14 806 140 z m 667 356 b 431 100 667 201 568 100 b 194 356 293 100 194 201 b 431 611 194 511 293 611 b 667 356 568 611 667 511 z "},"p":{"ha":897,"x_min":0,"x_max":0,"o":"m 469 610 b 703 358 608 610 703 515 b 469 103 703 199 608 103 b 243 231 379 103 297 150 l 243 471 b 469 610 296 558 379 610 z m 243 114 b 499 -14 303 32 397 -14 b 840 358 693 -14 840 139 b 499 726 840 576 697 726 b 243 594 388 726 303 674 l 243 713 l 108 713 l 108 -278 l 243 -278 z "},"q":{"ha":897,"x_min":0,"x_max":0,"o":"m 653 124 l 653 -274 l 789 -274 l 789 715 l 653 715 l 653 603 b 399 726 596 676 510 726 b 57 358 200 726 57 576 b 399 -14 57 139 204 -14 b 653 124 501 -14 601 33 z m 653 479 l 653 238 b 428 103 600 153 518 103 b 194 358 289 103 194 199 b 428 610 194 515 289 610 b 653 479 518 610 601 561 z "},"r":{"ha":533,"x_min":0,"x_max":0,"o":"m 500 710 b 424 726 479 719 453 726 b 243 585 346 726 276 676 l 243 713 l 108 713 l 108 0 l 243 0 l 243 475 b 411 599 276 550 338 599 b 500 581 442 599 478 592 z "},"s":{"ha":658,"x_min":0,"x_max":0,"o":"m 194 524 b 349 614 194 582 250 614 b 565 557 432 614 510 589 l 565 678 b 344 726 511 706 439 726 b 61 518 182 726 61 650 b 282 317 61 414 132 361 b 478 193 424 275 478 253 b 329 97 478 119 404 97 b 71 168 224 97 132 126 l 71 46 b 324 -14 129 10 215 -14 b 613 201 471 -14 613 44 b 372 417 613 322 529 372 b 194 524 239 454 194 472 z "},"t":{"ha":497,"x_min":0,"x_max":0,"o":"m 443 4 l 443 124 b 357 108 413 114 386 108 b 254 226 307 108 254 124 l 254 606 l 440 606 l 440 713 l 254 713 l 254 894 l 118 872 l 118 713 l 13 713 l 13 604 l 118 604 l 118 208 b 332 -14 118 43 200 -14 b 443 4 367 -14 408 -6 z "},"u":{"ha":839,"x_min":0,"x_max":0,"o":"m 603 0 l 731 0 l 731 713 l 594 713 l 594 233 b 397 104 554 164 486 104 b 236 269 290 104 236 158 l 236 713 l 101 713 l 101 253 b 353 -14 101 85 182 -14 b 603 131 472 -14 553 51 z "},"v":{"ha":774,"x_min":0,"x_max":0,"o":"m 453 0 l 757 713 l 625 713 l 388 132 l 158 713 l 15 713 l 311 0 z "},"w":{"ha":1171,"x_min":0,"x_max":0,"o":"m 903 0 l 1156 713 l 1032 713 l 836 135 l 651 713 l 533 713 l 351 135 l 158 713 l 15 713 l 269 0 l 411 0 l 579 526 l 750 0 z "},"x":{"ha":726,"x_min":0,"x_max":0,"o":"m 558 0 l 713 0 l 443 364 l 700 713 l 563 713 l 372 458 l 183 713 l 29 713 l 288 365 l 15 0 l 154 0 l 357 271 z "},"y":{"ha":779,"x_min":0,"x_max":0,"o":"m 125 -297 b 469 31 281 -297 378 -179 l 763 713 l 626 713 l 394 149 l 154 713 l 17 713 l 331 -3 b 117 -182 279 -111 210 -182 b 61 -175 97 -182 78 -179 l 61 -287 b 125 -297 78 -293 101 -297 z "},"z":{"ha":682,"x_min":0,"x_max":0,"o":"m 633 111 l 219 111 l 631 617 l 631 713 l 57 713 l 57 600 l 458 600 l 49 94 l 49 0 l 633 0 z "},"æ":{"ha":1301,"x_min":0,"x_max":0,"o":"m 921 618 b 1119 413 1035 618 1121 540 l 701 413 b 921 618 717 546 811 618 z m 961 -14 b 1190 47 1051 -14 1138 10 l 1190 161 b 964 97 1133 122 1043 97 b 701 318 825 97 715 174 l 1244 318 b 1251 399 1249 339 1251 374 b 924 726 1249 590 1117 726 b 650 579 803 726 714 672 b 388 726 601 679 524 726 b 140 665 288 726 203 703 l 140 550 b 364 615 206 592 276 615 b 569 431 497 615 569 553 b 568 394 569 413 569 410 b 321 468 504 443 417 468 b 54 226 160 468 54 367 b 331 -14 54 85 165 -14 b 635 153 447 -14 567 46 b 961 -14 699 50 813 -14 z m 369 86 b 200 233 271 86 200 142 b 369 376 200 321 260 376 b 571 300 443 376 517 342 b 586 233 574 276 578 256 b 369 86 551 160 474 86 z "},"œ":{"ha":1407,"x_min":0,"x_max":0,"o":"m 1296 47 l 1296 161 b 1068 97 1239 122 1149 97 b 807 318 926 97 819 178 l 1350 318 b 1356 399 1354 339 1356 374 b 1029 726 1354 590 1221 726 b 733 560 897 726 788 663 b 431 726 675 663 563 726 b 57 356 219 726 57 572 b 431 -14 57 140 219 -14 b 738 163 565 -14 679 56 b 1065 -14 797 57 915 -14 b 1296 47 1156 -14 1243 10 z m 1025 618 b 1225 413 1140 618 1225 540 l 807 413 b 1025 618 822 546 915 618 z m 667 356 b 431 100 667 201 568 100 b 194 356 293 100 194 201 b 431 611 194 511 293 611 b 667 356 568 611 667 511 z "},"ł":{"ha":367,"x_min":0,"x_max":0,"o":"m 251 0 l 251 518 l 343 561 l 343 679 l 251 636 l 251 1028 l 115 1004 l 115 571 l 26 529 l 26 413 l 115 454 l 115 0 z "},"ø":{"ha":863,"x_min":0,"x_max":0,"o":"m 431 -14 b 806 356 643 -14 806 140 b 728 588 806 446 776 526 l 806 665 l 743 726 l 667 650 b 431 726 603 699 521 726 b 57 356 219 726 57 572 b 138 119 57 264 88 182 l 64 46 l 126 -14 l 200 60 b 431 -14 263 13 343 -14 z m 194 356 b 431 611 194 511 293 611 b 579 561 489 611 539 593 l 229 213 b 194 356 207 251 194 300 z m 431 100 b 288 147 375 100 326 117 l 635 494 b 667 356 656 456 667 408 b 431 100 667 201 568 100 z "},"ð":{"ha":851,"x_min":0,"x_max":0,"o":"m 426 -14 b 793 410 639 -14 793 146 b 561 901 793 610 697 778 l 639 953 l 600 1007 l 507 947 b 383 1028 468 978 426 1004 l 265 1004 b 421 890 319 972 372 935 l 331 832 l 371 778 l 472 843 b 625 614 539 775 594 697 b 397 708 576 672 497 708 b 58 347 200 708 58 554 b 426 -14 58 140 213 -14 z m 426 601 b 656 357 563 601 656 503 b 426 101 656 204 567 101 b 196 347 289 101 196 204 b 426 601 196 499 288 601 z "},"þ":{"ha":897,"x_min":0,"x_max":0,"o":"m 469 610 b 703 358 608 610 703 515 b 469 103 703 199 608 103 b 243 233 379 103 297 149 l 243 468 b 469 610 294 558 379 610 z m 243 117 b 499 -14 304 33 397 -14 b 840 358 693 -14 840 139 b 499 726 840 576 697 726 b 243 592 386 726 299 672 l 243 1028 l 108 1004 l 108 -278 l 243 -278 z "},"ß":{"ha":832,"x_min":0,"x_max":0,"o":"m 108 700 l 108 0 l 243 0 l 243 707 b 417 908 243 839 311 908 b 576 750 515 908 576 847 b 422 590 576 649 504 590 l 422 486 b 633 292 539 486 633 421 b 444 94 633 165 544 94 b 314 125 394 94 356 104 l 314 18 b 478 -14 353 -1 408 -14 b 775 279 629 -14 775 93 b 572 547 775 419 706 517 b 717 772 643 576 717 647 b 422 1028 717 910 617 1028 b 108 700 218 1028 108 903 z "},"ı":{"ha":351,"x_min":0,"x_max":0,"o":"m 243 713 l 108 713 l 108 0 l 243 0 z "},"ȷ":{"ha":363,"x_min":0,"x_max":0,"o":"m 118 -54 b 14 -182 118 -144 81 -182 b -29 -179 0 -182 -14 -181 l -29 -287 b 51 -297 -6 -293 22 -297 b 254 -47 181 -297 254 -211 l 254 713 l 118 713 z "},"ﬁ":{"ha":793,"x_min":0,"x_max":0,"o":"m 685 1010 l 549 1010 l 549 825 l 685 825 z m 440 606 l 440 713 l 254 713 l 254 750 b 379 908 254 861 301 908 b 471 883 411 908 446 900 l 471 999 b 354 1028 442 1017 407 1028 b 118 747 215 1028 118 938 l 118 713 l 13 713 l 13 604 l 118 604 l 118 0 l 254 0 l 254 606 z m 685 713 l 549 713 l 549 0 l 685 0 z "},"ﬂ":{"ha":793,"x_min":0,"x_max":0,"o":"m 685 0 l 685 1028 l 549 1004 l 549 0 z m 440 606 l 440 713 l 254 713 l 254 750 b 379 908 254 861 301 908 b 471 883 411 908 446 900 l 471 999 b 354 1028 442 1017 407 1028 b 118 747 215 1028 118 938 l 118 713 l 13 713 l 13 604 l 118 604 l 118 0 l 254 0 l 254 606 z "},"Á":{"ha":985,"x_min":0,"x_max":0,"o":"m 389 1061 l 511 1061 l 682 1251 l 531 1251 z m 488 811 l 679 333 l 297 333 z m 813 0 l 968 0 l 576 958 l 407 958 l 15 0 l 164 0 l 249 214 l 726 214 z "},"Â":{"ha":985,"x_min":0,"x_max":0,"o":"m 606 1061 l 719 1061 l 561 1251 l 419 1251 l 263 1061 l 368 1061 l 488 1186 z m 488 811 l 679 333 l 297 333 z m 813 0 l 968 0 l 576 958 l 407 958 l 15 0 l 164 0 l 249 214 l 726 214 z "},"Ä":{"ha":985,"x_min":0,"x_max":0,"o":"m 554 1069 l 671 1069 l 671 1254 l 554 1254 z m 311 1069 l 428 1069 l 428 1254 l 311 1254 z m 488 811 l 679 333 l 297 333 z m 813 0 l 968 0 l 576 958 l 407 958 l 15 0 l 164 0 l 249 214 l 726 214 z "},"À":{"ha":985,"x_min":0,"x_max":0,"o":"m 438 1251 l 286 1251 l 457 1061 l 578 1061 z m 488 811 l 679 333 l 297 333 z m 813 0 l 968 0 l 576 958 l 407 958 l 15 0 l 164 0 l 249 214 l 726 214 z "},"Å":{"ha":985,"x_min":0,"x_max":0,"o":"m 492 1326 b 342 1181 406 1326 342 1265 b 492 1035 342 1097 406 1035 b 640 1181 576 1035 640 1096 b 492 1326 640 1263 576 1326 z m 492 1107 b 419 1182 449 1107 419 1138 b 492 1254 419 1224 449 1254 b 564 1182 533 1254 564 1225 b 492 1107 564 1138 533 1107 z m 488 811 l 679 333 l 297 333 z m 813 0 l 968 0 l 576 958 l 407 958 l 15 0 l 164 0 l 249 214 l 726 214 z "},"Ã":{"ha":985,"x_min":0,"x_max":0,"o":"m 594 1156 b 385 1249 525 1156 488 1249 b 238 1069 293 1249 240 1176 l 325 1069 b 396 1161 331 1132 360 1161 b 599 1068 457 1161 493 1068 b 747 1244 689 1068 746 1151 l 660 1244 b 594 1156 657 1192 633 1156 z m 488 811 l 679 333 l 297 333 z m 813 0 l 968 0 l 576 958 l 407 958 l 15 0 l 164 0 l 249 214 l 726 214 z "},"Ă":{"ha":985,"x_min":0,"x_max":0,"o":"m 615 1250 b 483 1146 597 1185 560 1146 b 353 1250 408 1146 369 1185 l 263 1250 b 483 1060 275 1140 351 1060 b 706 1250 615 1060 692 1140 z m 488 811 l 679 333 l 297 333 z m 813 0 l 968 0 l 576 958 l 407 958 l 15 0 l 164 0 l 249 214 l 726 214 z "},"Ā":{"ha":985,"x_min":0,"x_max":0,"o":"m 281 1104 l 701 1104 l 701 1210 l 281 1210 z m 488 811 l 679 333 l 297 333 z m 813 0 l 968 0 l 576 958 l 407 958 l 15 0 l 164 0 l 249 214 l 726 214 z "},"Ą":{"ha":985,"x_min":0,"x_max":0,"o":"m 928 -256 l 928 -175 b 819 -214 900 -196 858 -214 b 731 -143 768 -214 731 -189 b 875 0 731 -93 785 -51 l 968 0 l 576 958 l 407 958 l 15 0 l 164 0 l 249 214 l 726 214 l 803 24 b 628 -167 717 -18 628 -82 b 794 -293 628 -244 701 -293 b 928 -256 847 -293 885 -282 z m 488 811 l 679 333 l 297 333 z "},"Ç":{"ha":906,"x_min":0,"x_max":0,"o":"m 517 -290 b 672 -172 611 -290 672 -243 b 544 -74 672 -110 624 -74 l 515 -74 l 528 -14 b 557 -14 538 -14 547 -14 b 847 51 679 -14 768 8 l 847 188 b 565 117 768 146 678 117 b 210 481 347 117 210 260 b 561 840 210 697 349 840 b 832 765 657 840 751 817 l 832 901 b 558 972 767 944 671 972 b 61 479 269 972 61 767 b 469 -7 61 219 226 29 l 446 -131 l 513 -131 b 581 -176 553 -131 581 -144 b 507 -224 581 -211 547 -224 b 392 -196 461 -224 429 -212 l 392 -265 b 517 -290 429 -282 463 -290 z "},"Ć":{"ha":906,"x_min":0,"x_max":0,"o":"m 400 1061 l 522 1061 l 693 1251 l 542 1251 z m 847 188 b 565 117 768 146 678 117 b 210 481 347 117 210 260 b 561 840 210 697 349 840 b 832 765 657 840 751 817 l 832 901 b 558 972 767 944 671 972 b 61 479 269 972 61 767 b 557 -14 61 189 267 -14 b 847 51 679 -14 768 8 z "},"Č":{"ha":906,"x_min":0,"x_max":0,"o":"m 432 1061 l 574 1061 l 732 1251 l 618 1251 l 500 1128 l 381 1251 l 275 1251 z m 847 188 b 565 117 768 146 678 117 b 210 481 347 117 210 260 b 561 840 210 697 349 840 b 832 765 657 840 751 817 l 832 901 b 558 972 767 944 671 972 b 61 479 269 972 61 767 b 557 -14 61 189 267 -14 b 847 51 679 -14 768 8 z "},"Ĉ":{"ha":906,"x_min":0,"x_max":0,"o":"m 617 1061 l 731 1061 l 572 1251 l 431 1251 l 274 1061 l 379 1061 l 499 1186 z m 847 188 b 565 117 768 146 678 117 b 210 481 347 117 210 260 b 561 840 210 697 349 840 b 832 765 657 840 751 817 l 832 901 b 558 972 767 944 671 972 b 61 479 269 972 61 767 b 557 -14 61 189 267 -14 b 847 51 679 -14 768 8 z "},"Ċ":{"ha":906,"x_min":0,"x_max":0,"o":"m 589 1254 l 454 1254 l 454 1069 l 589 1069 z m 847 188 b 565 117 768 146 678 117 b 210 481 347 117 210 260 b 561 840 210 697 349 840 b 832 765 657 840 751 817 l 832 901 b 558 972 767 944 671 972 b 61 479 269 972 61 767 b 557 -14 61 189 267 -14 b 847 51 679 -14 768 8 z "},"Ď":{"ha":1010,"x_min":0,"x_max":0,"o":"m 425 1061 l 567 1061 l 725 1251 l 611 1251 l 493 1128 l 374 1251 l 268 1251 z m 464 831 b 800 481 669 831 800 690 b 464 126 800 263 669 126 l 258 126 l 258 831 z m 115 0 l 463 0 b 949 482 747 0 949 197 b 469 958 949 757 747 958 l 115 958 z "},"Đ":{"ha":1014,"x_min":0,"x_max":0,"o":"m 456 428 l 456 532 l 263 532 l 263 831 l 468 831 b 803 481 674 831 803 690 b 468 126 803 263 674 126 l 263 126 l 263 428 z m 118 0 l 465 0 b 953 482 751 0 953 197 b 472 958 953 757 751 958 l 118 958 l 118 532 l 19 532 l 19 428 l 118 428 z "},"É":{"ha":819,"x_min":0,"x_max":0,"o":"m 322 1061 l 444 1061 l 615 1251 l 464 1251 z m 751 831 l 751 958 l 115 958 l 115 0 l 751 0 l 751 126 l 258 126 l 258 425 l 622 425 l 622 553 l 258 553 l 258 831 z "},"Ê":{"ha":819,"x_min":0,"x_max":0,"o":"m 544 1061 l 658 1061 l 500 1251 l 358 1251 l 201 1061 l 307 1061 l 426 1186 z m 751 831 l 751 958 l 115 958 l 115 0 l 751 0 l 751 126 l 258 126 l 258 425 l 622 425 l 622 553 l 258 553 l 258 831 z "},"Ë":{"ha":819,"x_min":0,"x_max":0,"o":"m 490 1069 l 607 1069 l 607 1254 l 490 1254 z m 247 1069 l 364 1069 l 364 1254 l 247 1254 z m 751 831 l 751 958 l 115 958 l 115 0 l 751 0 l 751 126 l 258 126 l 258 425 l 622 425 l 622 553 l 258 553 l 258 831 z "},"È":{"ha":819,"x_min":0,"x_max":0,"o":"m 390 1251 l 239 1251 l 410 1061 l 531 1061 z m 751 831 l 751 958 l 115 958 l 115 0 l 751 0 l 751 126 l 258 126 l 258 425 l 622 425 l 622 553 l 258 553 l 258 831 z "},"Ĕ":{"ha":819,"x_min":0,"x_max":0,"o":"m 563 1250 b 431 1146 544 1185 507 1146 b 300 1250 356 1146 317 1185 l 210 1250 b 431 1060 222 1140 299 1060 b 653 1250 563 1060 639 1140 z m 751 831 l 751 958 l 115 958 l 115 0 l 751 0 l 751 126 l 258 126 l 258 425 l 622 425 l 622 553 l 258 553 l 258 831 z "},"Ě":{"ha":819,"x_min":0,"x_max":0,"o":"m 353 1061 l 494 1061 l 653 1251 l 539 1251 l 421 1128 l 301 1251 l 196 1251 z m 751 831 l 751 958 l 115 958 l 115 0 l 751 0 l 751 126 l 258 126 l 258 425 l 622 425 l 622 553 l 258 553 l 258 831 z "},"Ė":{"ha":819,"x_min":0,"x_max":0,"o":"m 500 1254 l 365 1254 l 365 1069 l 500 1069 z m 751 831 l 751 958 l 115 958 l 115 0 l 751 0 l 751 126 l 258 126 l 258 425 l 622 425 l 622 553 l 258 553 l 258 831 z "},"Ē":{"ha":819,"x_min":0,"x_max":0,"o":"m 215 1104 l 636 1104 l 636 1210 l 215 1210 z m 751 831 l 751 958 l 115 958 l 115 0 l 751 0 l 751 126 l 258 126 l 258 425 l 622 425 l 622 553 l 258 553 l 258 831 z "},"Ę":{"ha":819,"x_min":0,"x_max":0,"o":"m 742 -256 l 742 -175 b 633 -214 714 -196 672 -214 b 544 -143 582 -214 544 -189 b 679 0 544 -93 594 -49 l 751 0 l 751 126 l 258 126 l 258 425 l 622 425 l 622 553 l 258 553 l 258 831 l 751 831 l 751 958 l 115 958 l 115 0 l 582 0 b 442 -167 508 -40 442 -93 b 608 -293 442 -244 515 -293 b 742 -256 661 -293 699 -282 z "},"Ğ":{"ha":1013,"x_min":0,"x_max":0,"o":"m 660 1250 b 528 1146 642 1185 604 1146 b 397 1250 453 1146 414 1185 l 307 1250 b 528 1060 319 1140 396 1060 b 750 1250 660 1060 736 1140 z m 935 108 l 935 503 l 561 503 l 561 383 l 799 383 l 799 182 b 569 117 739 135 656 117 b 210 479 350 117 210 261 b 561 840 210 700 349 840 b 831 775 668 840 758 814 l 831 913 b 558 972 765 949 669 972 b 61 478 269 972 61 768 b 560 -14 61 192 263 -14 b 935 108 692 -14 839 24 z "},"Ĝ":{"ha":1013,"x_min":0,"x_max":0,"o":"m 633 1061 l 747 1061 l 589 1251 l 447 1251 l 290 1061 l 396 1061 l 515 1186 z m 935 108 l 935 503 l 561 503 l 561 383 l 799 383 l 799 182 b 569 117 739 135 656 117 b 210 479 350 117 210 261 b 561 840 210 700 349 840 b 831 775 668 840 758 814 l 831 913 b 558 972 765 949 669 972 b 61 478 269 972 61 768 b 560 -14 61 192 263 -14 b 935 108 692 -14 839 24 z "},"Ģ":{"ha":1013,"x_min":0,"x_max":0,"o":"m 935 108 l 935 503 l 561 503 l 561 383 l 799 383 l 799 182 b 569 117 739 135 656 117 b 210 479 350 117 210 261 b 561 840 210 700 349 840 b 831 775 668 840 758 814 l 831 913 b 558 972 765 949 669 972 b 61 478 269 972 61 768 b 560 -14 61 192 263 -14 b 935 108 692 -14 839 24 z m 472 -89 l 472 -243 l 532 -243 b 469 -340 526 -279 507 -314 l 503 -368 b 611 -185 582 -324 611 -258 l 611 -89 z "},"Ġ":{"ha":1013,"x_min":0,"x_max":0,"o":"m 575 1254 l 440 1254 l 440 1069 l 575 1069 z m 935 108 l 935 503 l 561 503 l 561 383 l 799 383 l 799 182 b 569 117 739 135 656 117 b 210 479 350 117 210 261 b 561 840 210 700 349 840 b 831 775 668 840 758 814 l 831 913 b 558 972 765 949 669 972 b 61 478 269 972 61 768 b 560 -14 61 192 263 -14 b 935 108 692 -14 839 24 z "},"Ħ":{"ha":1046,"x_min":0,"x_max":0,"o":"m 786 517 l 258 517 l 258 672 l 786 672 z m 786 0 l 931 0 l 931 672 l 1014 672 l 1014 781 l 931 781 l 931 958 l 786 958 l 786 781 l 258 781 l 258 958 l 115 958 l 115 781 l 32 781 l 32 672 l 115 672 l 115 0 l 258 0 l 258 408 l 786 408 z "},"Ĥ":{"ha":1046,"x_min":0,"x_max":0,"o":"m 636 1061 l 750 1061 l 592 1251 l 450 1251 l 293 1061 l 399 1061 l 518 1186 z m 786 0 l 931 0 l 931 958 l 786 958 l 786 536 l 258 536 l 258 958 l 115 958 l 115 0 l 258 0 l 258 408 l 786 408 z "},"Í":{"ha":374,"x_min":0,"x_max":0,"o":"m 93 1061 l 215 1061 l 386 1251 l 235 1251 z m 258 958 l 115 958 l 115 0 l 258 0 z "},"Î":{"ha":374,"x_min":0,"x_max":0,"o":"m 301 1061 l 415 1061 l 257 1251 l 115 1251 l -42 1061 l 64 1061 l 183 1186 z m 258 958 l 115 958 l 115 0 l 258 0 z "},"Ï":{"ha":374,"x_min":0,"x_max":0,"o":"m 250 1069 l 367 1069 l 367 1254 l 250 1254 z m 7 1069 l 124 1069 l 124 1254 l 7 1254 z m 258 958 l 115 958 l 115 0 l 258 0 z "},"Ì":{"ha":374,"x_min":0,"x_max":0,"o":"m 146 1251 l -6 1251 l 165 1061 l 286 1061 z m 258 958 l 115 958 l 115 0 l 258 0 z "},"Ĭ":{"ha":374,"x_min":0,"x_max":0,"o":"m 311 1250 b 179 1146 293 1185 256 1146 b 49 1250 104 1146 65 1185 l -42 1250 b 179 1060 -29 1140 47 1060 b 401 1250 311 1060 388 1140 z m 258 958 l 115 958 l 115 0 l 258 0 z "},"İ":{"ha":374,"x_min":0,"x_max":0,"o":"m 254 1254 l 119 1254 l 119 1069 l 254 1069 z m 258 958 l 115 958 l 115 0 l 258 0 z "},"Ī":{"ha":374,"x_min":0,"x_max":0,"o":"m -24 1104 l 397 1104 l 397 1210 l -24 1210 z m 258 958 l 115 958 l 115 0 l 258 0 z "},"Į":{"ha":374,"x_min":0,"x_max":0,"o":"m 254 -256 l 254 -175 b 146 -214 225 -196 183 -214 b 56 -143 94 -214 56 -189 b 188 0 56 -93 107 -51 l 258 0 l 258 958 l 115 958 l 115 19 b -44 -167 35 -22 -44 -85 b 121 -293 -44 -244 28 -293 b 254 -256 172 -293 210 -282 z "},"Ĩ":{"ha":374,"x_min":0,"x_max":0,"o":"m 290 1156 b 81 1249 221 1156 183 1249 b -67 1069 -11 1249 -64 1176 l 21 1069 b 92 1161 26 1132 56 1161 b 294 1068 153 1161 189 1068 b 443 1244 385 1068 442 1151 l 356 1244 b 290 1156 353 1192 329 1156 z m 258 958 l 115 958 l 115 0 l 258 0 z "},"Ĵ":{"ha":626,"x_min":0,"x_max":0,"o":"m 535 1061 l 649 1061 l 490 1251 l 349 1251 l 192 1061 l 297 1061 l 417 1186 z m 53 8 b 200 -14 90 -4 154 -14 b 518 319 382 -14 518 101 l 518 958 l 374 958 l 374 317 b 193 117 374 169 297 117 b 53 136 143 117 96 122 z "},"Ĳ":{"ha":1000,"x_min":0,"x_max":0,"o":"m 258 958 l 115 958 l 115 0 l 258 0 z m 426 8 b 574 -14 464 -4 528 -14 b 892 319 756 -14 892 101 l 892 958 l 747 958 l 747 317 b 567 117 747 169 671 117 b 426 136 517 117 469 122 z "},"Ķ":{"ha":919,"x_min":0,"x_max":0,"o":"m 721 0 l 896 0 l 478 522 l 851 958 l 692 958 l 258 450 l 258 958 l 115 958 l 115 0 l 258 0 l 258 268 l 386 415 z m 392 -89 l 392 -243 l 451 -243 b 389 -340 446 -279 426 -314 l 422 -368 b 531 -185 501 -324 531 -258 l 531 -89 z "},"Ĺ":{"ha":821,"x_min":0,"x_max":0,"o":"m 158 1061 l 281 1061 l 451 1251 l 300 1251 z m 258 958 l 115 958 l 115 0 l 758 0 l 758 126 l 258 126 z "},"Ľ":{"ha":821,"x_min":0,"x_max":0,"o":"m 422 986 l 422 831 l 482 831 b 419 708 476 786 457 742 l 453 681 b 561 889 535 736 561 807 l 561 986 z m 258 958 l 115 958 l 115 0 l 758 0 l 758 126 l 258 126 z "},"Ļ":{"ha":821,"x_min":0,"x_max":0,"o":"m 258 958 l 115 958 l 115 0 l 758 0 l 758 126 l 258 126 z m 351 -89 l 351 -243 l 411 -243 b 349 -340 406 -279 386 -314 l 382 -368 b 490 -185 461 -324 490 -258 l 490 -89 z "},"Ŀ":{"ha":821,"x_min":0,"x_max":0,"o":"m 258 958 l 115 958 l 115 0 l 758 0 l 758 126 l 258 126 z m 499 607 l 499 438 l 649 438 l 649 607 z "},"Ñ":{"ha":1036,"x_min":0,"x_max":0,"o":"m 621 1156 b 411 1249 551 1156 514 1249 b 264 1069 319 1249 267 1176 l 351 1069 b 422 1161 357 1132 386 1161 b 625 1068 483 1161 519 1068 b 774 1244 715 1068 772 1151 l 686 1244 b 621 1156 683 1192 660 1156 z m 785 0 l 921 0 l 921 958 l 776 958 l 776 231 l 250 958 l 115 958 l 115 0 l 258 0 l 258 718 z "},"Ń":{"ha":1036,"x_min":0,"x_max":0,"o":"m 415 1061 l 538 1061 l 708 1251 l 557 1251 z m 785 0 l 921 0 l 921 958 l 776 958 l 776 231 l 250 958 l 115 958 l 115 0 l 258 0 l 258 718 z "},"Ň":{"ha":1036,"x_min":0,"x_max":0,"o":"m 446 1061 l 588 1061 l 746 1251 l 632 1251 l 514 1128 l 394 1251 l 289 1251 z m 785 0 l 921 0 l 921 958 l 776 958 l 776 231 l 250 958 l 115 958 l 115 0 l 258 0 l 258 718 z "},"Ņ":{"ha":1036,"x_min":0,"x_max":0,"o":"m 785 0 l 921 0 l 921 958 l 776 958 l 776 231 l 250 958 l 115 958 l 115 0 l 258 0 l 258 718 z m 450 -89 l 450 -243 l 510 -243 b 447 -340 504 -279 485 -314 l 481 -368 b 589 -185 560 -324 589 -258 l 589 -89 z "},"Ó":{"ha":1106,"x_min":0,"x_max":0,"o":"m 450 1061 l 572 1061 l 743 1251 l 592 1251 z m 64 478 b 551 -14 64 194 271 -14 b 1040 479 833 -14 1040 194 b 553 972 1040 764 833 972 b 64 478 271 972 64 763 z m 892 479 b 553 117 892 263 756 117 b 213 479 350 117 213 263 b 553 840 213 694 350 840 b 892 479 756 840 892 694 z "},"Ô":{"ha":1106,"x_min":0,"x_max":0,"o":"m 667 1061 l 781 1061 l 622 1251 l 481 1251 l 324 1061 l 429 1061 l 549 1186 z m 64 478 b 551 -14 64 194 271 -14 b 1040 479 833 -14 1040 194 b 553 972 1040 764 833 972 b 64 478 271 972 64 763 z m 892 479 b 553 117 892 263 756 117 b 213 479 350 117 213 263 b 553 840 213 694 350 840 b 892 479 756 840 892 694 z "},"Ö":{"ha":1106,"x_min":0,"x_max":0,"o":"m 615 1069 l 732 1069 l 732 1254 l 615 1254 z m 372 1069 l 489 1069 l 489 1254 l 372 1254 z m 64 478 b 551 -14 64 194 271 -14 b 1040 479 833 -14 1040 194 b 553 972 1040 764 833 972 b 64 478 271 972 64 763 z m 892 479 b 553 117 892 263 756 117 b 213 479 350 117 213 263 b 553 840 213 694 350 840 b 892 479 756 840 892 694 z "},"Ò":{"ha":1106,"x_min":0,"x_max":0,"o":"m 499 1251 l 347 1251 l 518 1061 l 639 1061 z m 64 478 b 551 -14 64 194 271 -14 b 1040 479 833 -14 1040 194 b 553 972 1040 764 833 972 b 64 478 271 972 64 763 z m 892 479 b 553 117 892 263 756 117 b 213 479 350 117 213 263 b 553 840 213 694 350 840 b 892 479 756 840 892 694 z "},"Õ":{"ha":1106,"x_min":0,"x_max":0,"o":"m 656 1156 b 446 1249 586 1156 549 1249 b 299 1069 354 1249 301 1176 l 386 1069 b 457 1161 392 1132 421 1161 b 660 1068 518 1161 554 1068 b 808 1244 750 1068 807 1151 l 721 1244 b 656 1156 718 1192 694 1156 z m 64 478 b 551 -14 64 194 271 -14 b 1040 479 833 -14 1040 194 b 553 972 1040 764 833 972 b 64 478 271 972 64 763 z m 892 479 b 553 117 892 263 756 117 b 213 479 350 117 213 263 b 553 840 213 694 350 840 b 892 479 756 840 892 694 z "},"Ŏ":{"ha":1106,"x_min":0,"x_max":0,"o":"m 676 1250 b 544 1146 658 1185 621 1146 b 414 1250 469 1146 431 1185 l 324 1250 b 544 1060 336 1140 413 1060 b 767 1250 676 1060 753 1140 z m 64 478 b 551 -14 64 194 271 -14 b 1040 479 833 -14 1040 194 b 553 972 1040 764 833 972 b 64 478 271 972 64 763 z m 892 479 b 553 117 892 263 756 117 b 213 479 350 117 213 263 b 553 840 213 694 350 840 b 892 479 756 840 892 694 z "},"Ő":{"ha":1106,"x_min":0,"x_max":0,"o":"m 576 1061 l 696 1061 l 869 1251 l 719 1251 z m 322 1061 l 443 1061 l 617 1251 l 467 1251 z m 64 478 b 551 -14 64 194 271 -14 b 1040 479 833 -14 1040 194 b 553 972 1040 764 833 972 b 64 478 271 972 64 763 z m 892 479 b 553 117 892 263 756 117 b 213 479 350 117 213 263 b 553 840 213 694 350 840 b 892 479 756 840 892 694 z "},"Ō":{"ha":1106,"x_min":0,"x_max":0,"o":"m 342 1104 l 763 1104 l 763 1210 l 342 1210 z m 64 478 b 551 -14 64 194 271 -14 b 1040 479 833 -14 1040 194 b 553 972 1040 764 833 972 b 64 478 271 972 64 763 z m 892 479 b 553 117 892 263 756 117 b 213 479 350 117 213 263 b 553 840 213 694 350 840 b 892 479 756 840 892 694 z "},"Ŕ":{"ha":907,"x_min":0,"x_max":0,"o":"m 342 1061 l 464 1061 l 635 1251 l 483 1251 z m 488 831 b 675 676 603 831 675 768 b 488 518 675 582 601 518 l 258 518 l 258 831 z m 700 0 l 868 0 l 611 413 b 825 681 739 451 825 551 b 488 958 825 842 682 958 l 115 958 l 115 0 l 258 0 l 258 394 l 467 394 z "},"Ř":{"ha":907,"x_min":0,"x_max":0,"o":"m 367 1061 l 508 1061 l 667 1251 l 553 1251 l 435 1128 l 315 1251 l 210 1251 z m 488 831 b 675 676 603 831 675 768 b 488 518 675 582 601 518 l 258 518 l 258 831 z m 700 0 l 868 0 l 611 413 b 825 681 739 451 825 551 b 488 958 825 842 682 958 l 115 958 l 115 0 l 258 0 l 258 394 l 467 394 z "},"Ŗ":{"ha":907,"x_min":0,"x_max":0,"o":"m 488 831 b 675 676 603 831 675 768 b 488 518 675 582 601 518 l 258 518 l 258 831 z m 700 0 l 868 0 l 611 413 b 825 681 739 451 825 551 b 488 958 825 842 682 958 l 115 958 l 115 0 l 258 0 l 258 394 l 467 394 z m 388 -89 l 388 -243 l 447 -243 b 385 -340 442 -279 422 -314 l 418 -368 b 526 -185 497 -324 526 -258 l 526 -89 z "},"Š":{"ha":819,"x_min":0,"x_max":0,"o":"m 338 1061 l 479 1061 l 638 1251 l 524 1251 l 406 1128 l 286 1251 l 181 1251 z m 64 67 b 389 -14 143 17 258 -14 b 767 263 603 -14 767 86 b 464 550 767 403 681 478 b 215 719 286 610 215 643 b 418 844 215 799 296 844 b 701 779 511 844 611 822 l 701 913 b 425 972 625 951 535 972 b 67 711 206 972 67 864 b 381 431 67 576 171 499 b 617 253 544 378 617 338 b 400 113 617 161 535 113 b 64 208 275 113 164 149 z "},"Ś":{"ha":819,"x_min":0,"x_max":0,"o":"m 301 1061 l 424 1061 l 594 1251 l 443 1251 z m 64 67 b 389 -14 143 17 258 -14 b 767 263 603 -14 767 86 b 464 550 767 403 681 478 b 215 719 286 610 215 643 b 418 844 215 799 296 844 b 701 779 511 844 611 822 l 701 913 b 425 972 625 951 535 972 b 67 711 206 972 67 864 b 381 431 67 576 171 499 b 617 253 544 378 617 338 b 400 113 617 161 535 113 b 64 208 275 113 164 149 z "},"Ş":{"ha":819,"x_min":0,"x_max":0,"o":"m 401 -290 b 558 -172 496 -290 558 -243 b 429 -74 558 -110 508 -74 l 401 -74 l 414 -14 b 767 263 615 -6 767 93 b 464 550 767 403 681 478 b 215 719 286 610 215 643 b 418 844 215 799 296 844 b 701 779 511 844 611 822 l 701 913 b 425 972 625 951 535 972 b 67 711 206 972 67 864 b 381 431 67 576 171 499 b 617 253 544 378 617 338 b 400 113 617 161 535 113 b 64 208 275 113 164 149 l 64 67 b 354 -12 136 21 239 -8 l 331 -131 l 399 -131 b 465 -176 438 -131 465 -144 b 393 -224 465 -211 433 -224 b 276 -196 346 -224 314 -212 l 276 -265 b 401 -290 315 -282 347 -290 z "},"Ŝ":{"ha":819,"x_min":0,"x_max":0,"o":"m 524 1061 l 638 1061 l 479 1251 l 338 1251 l 181 1061 l 286 1061 l 406 1186 z m 64 67 b 389 -14 143 17 258 -14 b 767 263 603 -14 767 86 b 464 550 767 403 681 478 b 215 719 286 610 215 643 b 418 844 215 799 296 844 b 701 779 511 844 611 822 l 701 913 b 425 972 625 951 535 972 b 67 711 206 972 67 864 b 381 431 67 576 171 499 b 617 253 544 378 617 338 b 400 113 617 161 535 113 b 64 208 275 113 164 149 z "},"Ș":{"ha":819,"x_min":0,"x_max":0,"o":"m 64 67 b 389 -14 143 17 258 -14 b 767 263 603 -14 767 86 b 464 550 767 403 681 478 b 215 719 286 610 215 643 b 418 844 215 799 296 844 b 701 779 511 844 611 822 l 701 913 b 425 972 625 951 535 972 b 67 711 206 972 67 864 b 381 431 67 576 171 499 b 617 253 544 378 617 338 b 400 113 617 161 535 113 b 64 208 275 113 164 149 z m 342 -89 l 342 -243 l 401 -243 b 339 -340 396 -279 376 -314 l 372 -368 b 481 -185 451 -324 481 -258 l 481 -89 z "},"Ŧ":{"ha":839,"x_min":0,"x_max":0,"o":"m 679 444 l 679 551 l 492 551 l 492 831 l 806 831 l 806 958 l 33 958 l 33 831 l 347 831 l 347 551 l 160 551 l 160 444 l 347 444 l 347 0 l 492 0 l 492 444 z "},"Ť":{"ha":839,"x_min":0,"x_max":0,"o":"m 347 1061 l 489 1061 l 647 1251 l 533 1251 l 415 1128 l 296 1251 l 190 1251 z m 806 831 l 806 958 l 33 958 l 33 831 l 347 831 l 347 0 l 492 0 l 492 831 z "},"Ţ":{"ha":839,"x_min":0,"x_max":0,"o":"m 806 831 l 806 958 l 33 958 l 33 831 l 347 831 l 347 0 l 492 0 l 492 831 z m 356 -89 l 356 -243 l 415 -243 b 353 -340 410 -279 390 -314 l 386 -368 b 494 -185 465 -324 494 -258 l 494 -89 z "},"Ț":{"ha":839,"x_min":0,"x_max":0,"o":"m 806 831 l 806 958 l 33 958 l 33 831 l 347 831 l 347 0 l 492 0 l 492 831 z m 356 -89 l 356 -243 l 415 -243 b 353 -340 410 -279 390 -314 l 386 -368 b 494 -185 465 -324 494 -258 l 494 -89 z "},"Ú":{"ha":1006,"x_min":0,"x_max":0,"o":"m 400 1061 l 522 1061 l 693 1251 l 542 1251 z m 753 958 l 753 367 b 501 117 753 213 657 117 b 251 367 347 117 251 213 l 251 958 l 108 958 l 108 369 b 501 -14 108 142 261 -14 b 897 364 743 -14 897 139 l 897 958 z "},"Û":{"ha":1006,"x_min":0,"x_max":0,"o":"m 617 1061 l 731 1061 l 572 1251 l 431 1251 l 274 1061 l 379 1061 l 499 1186 z m 753 958 l 753 367 b 501 117 753 213 657 117 b 251 367 347 117 251 213 l 251 958 l 108 958 l 108 369 b 501 -14 108 142 261 -14 b 897 364 743 -14 897 139 l 897 958 z "},"Ü":{"ha":1006,"x_min":0,"x_max":0,"o":"m 565 1069 l 682 1069 l 682 1254 l 565 1254 z m 322 1069 l 439 1069 l 439 1254 l 322 1254 z m 753 958 l 753 367 b 501 117 753 213 657 117 b 251 367 347 117 251 213 l 251 958 l 108 958 l 108 369 b 501 -14 108 142 261 -14 b 897 364 743 -14 897 139 l 897 958 z "},"Ù":{"ha":1006,"x_min":0,"x_max":0,"o":"m 463 1251 l 311 1251 l 482 1061 l 603 1061 z m 753 958 l 753 367 b 501 117 753 213 657 117 b 251 367 347 117 251 213 l 251 958 l 108 958 l 108 369 b 501 -14 108 142 261 -14 b 897 364 743 -14 897 139 l 897 958 z "},"Ŭ":{"ha":1006,"x_min":0,"x_max":0,"o":"m 626 1250 b 494 1146 608 1185 571 1146 b 364 1250 419 1146 381 1185 l 274 1250 b 494 1060 286 1140 363 1060 b 717 1250 626 1060 703 1140 z m 753 958 l 753 367 b 501 117 753 213 657 117 b 251 367 347 117 251 213 l 251 958 l 108 958 l 108 369 b 501 -14 108 142 261 -14 b 897 364 743 -14 897 139 l 897 958 z "},"Ű":{"ha":1006,"x_min":0,"x_max":0,"o":"m 526 1061 l 646 1061 l 819 1251 l 669 1251 z m 272 1061 l 393 1061 l 567 1251 l 417 1251 z m 753 958 l 753 367 b 501 117 753 213 657 117 b 251 367 347 117 251 213 l 251 958 l 108 958 l 108 369 b 501 -14 108 142 261 -14 b 897 364 743 -14 897 139 l 897 958 z "},"Ū":{"ha":1006,"x_min":0,"x_max":0,"o":"m 292 1104 l 713 1104 l 713 1210 l 292 1210 z m 753 958 l 753 367 b 501 117 753 213 657 117 b 251 367 347 117 251 213 l 251 958 l 108 958 l 108 369 b 501 -14 108 142 261 -14 b 897 364 743 -14 897 139 l 897 958 z "},"Ų":{"ha":1006,"x_min":0,"x_max":0,"o":"m 576 -293 b 710 -256 629 -293 667 -282 l 710 -175 b 601 -214 682 -196 640 -214 b 513 -143 550 -214 513 -189 b 635 4 513 -90 556 -49 b 897 364 799 50 897 183 l 897 958 l 753 958 l 753 367 b 501 117 753 213 657 117 b 251 367 347 117 251 213 l 251 958 l 108 958 l 108 369 b 501 -14 108 142 261 -14 l 517 -14 b 410 -167 457 -53 410 -101 b 576 -293 410 -244 483 -293 z "},"Ů":{"ha":1006,"x_min":0,"x_max":0,"o":"m 503 1326 b 353 1181 417 1326 353 1265 b 503 1035 353 1097 417 1035 b 651 1181 588 1035 651 1096 b 503 1326 651 1263 588 1326 z m 503 1107 b 431 1182 460 1107 431 1138 b 503 1254 431 1224 460 1254 b 575 1182 544 1254 575 1225 b 503 1107 575 1138 544 1107 z m 753 958 l 753 367 b 501 117 753 213 657 117 b 251 367 347 117 251 213 l 251 958 l 108 958 l 108 369 b 501 -14 108 142 261 -14 b 897 364 743 -14 897 139 l 897 958 z "},"Ũ":{"ha":1006,"x_min":0,"x_max":0,"o":"m 606 1156 b 396 1249 536 1156 499 1249 b 249 1069 304 1249 251 1176 l 336 1069 b 407 1161 342 1132 371 1161 b 610 1068 468 1161 504 1068 b 758 1244 700 1068 757 1151 l 671 1244 b 606 1156 668 1192 644 1156 z m 753 958 l 753 367 b 501 117 753 213 657 117 b 251 367 347 117 251 213 l 251 958 l 108 958 l 108 369 b 501 -14 108 142 261 -14 b 897 364 743 -14 897 139 l 897 958 z "},"Ẃ":{"ha":1407,"x_min":0,"x_max":0,"o":"m 611 1061 l 733 1061 l 904 1251 l 753 1251 z m 1250 958 l 990 154 l 781 782 l 642 782 l 422 154 l 165 958 l 13 958 l 332 0 l 490 0 l 703 606 l 908 0 l 1075 0 l 1394 958 z "},"Ŵ":{"ha":1407,"x_min":0,"x_max":0,"o":"m 826 1061 l 940 1061 l 782 1251 l 640 1251 l 483 1061 l 589 1061 l 708 1186 z m 1250 958 l 990 154 l 781 782 l 642 782 l 422 154 l 165 958 l 13 958 l 332 0 l 490 0 l 703 606 l 908 0 l 1075 0 l 1394 958 z "},"Ẅ":{"ha":1407,"x_min":0,"x_max":0,"o":"m 775 1069 l 892 1069 l 892 1254 l 775 1254 z m 532 1069 l 649 1069 l 649 1254 l 532 1254 z m 1250 958 l 990 154 l 781 782 l 642 782 l 422 154 l 165 958 l 13 958 l 332 0 l 490 0 l 703 606 l 908 0 l 1075 0 l 1394 958 z "},"Ẁ":{"ha":1407,"x_min":0,"x_max":0,"o":"m 653 1251 l 501 1251 l 672 1061 l 793 1061 z m 1250 958 l 990 154 l 781 782 l 642 782 l 422 154 l 165 958 l 13 958 l 332 0 l 490 0 l 703 606 l 908 0 l 1075 0 l 1394 958 z "},"Ý":{"ha":928,"x_min":0,"x_max":0,"o":"m 367 1061 l 489 1061 l 660 1251 l 508 1251 z m 913 958 l 753 958 l 460 518 l 168 958 l 15 958 l 392 392 l 392 0 l 536 0 l 536 392 z "},"Ÿ":{"ha":928,"x_min":0,"x_max":0,"o":"m 526 1069 l 643 1069 l 643 1254 l 526 1254 z m 283 1069 l 400 1069 l 400 1254 l 283 1254 z m 913 958 l 753 958 l 460 518 l 168 958 l 15 958 l 392 392 l 392 0 l 536 0 l 536 392 z "},"Ŷ":{"ha":928,"x_min":0,"x_max":0,"o":"m 578 1061 l 692 1061 l 533 1251 l 392 1251 l 235 1061 l 340 1061 l 460 1186 z m 913 958 l 753 958 l 460 518 l 168 958 l 15 958 l 392 392 l 392 0 l 536 0 l 536 392 z "},"Ỳ":{"ha":928,"x_min":0,"x_max":0,"o":"m 415 1251 l 264 1251 l 435 1061 l 556 1061 z m 913 958 l 753 958 l 460 518 l 168 958 l 15 958 l 392 392 l 392 0 l 536 0 l 536 392 z "},"Ž":{"ha":833,"x_min":0,"x_max":0,"o":"m 344 1061 l 486 1061 l 644 1251 l 531 1251 l 413 1128 l 293 1251 l 188 1251 z m 54 0 l 779 0 l 779 126 l 235 126 l 772 832 l 772 949 l 64 949 l 64 821 l 589 821 l 54 115 z "},"Ź":{"ha":833,"x_min":0,"x_max":0,"o":"m 314 1061 l 436 1061 l 607 1251 l 456 1251 z m 54 0 l 779 0 l 779 126 l 235 126 l 772 832 l 772 949 l 64 949 l 64 821 l 589 821 l 54 115 z "},"Ż":{"ha":833,"x_min":0,"x_max":0,"o":"m 483 1254 l 349 1254 l 349 1069 l 483 1069 z m 54 0 l 779 0 l 779 126 l 235 126 l 772 832 l 772 949 l 64 949 l 64 821 l 589 821 l 54 115 z "},"á":{"ha":811,"x_min":0,"x_max":0,"o":"m 296 817 l 418 817 l 589 1007 l 438 1007 z m 571 203 b 369 86 522 126 449 86 b 200 233 271 86 200 142 b 369 376 200 321 260 376 b 571 304 444 376 517 347 z m 140 665 l 140 550 b 367 615 206 592 289 615 b 565 431 500 615 565 553 l 565 394 b 321 468 501 439 417 468 b 54 226 160 468 54 367 b 313 -14 54 85 165 -14 b 571 110 415 -14 507 28 l 571 0 l 707 0 l 707 436 b 392 726 707 618 604 726 b 140 665 292 726 203 703 z "},"â":{"ha":811,"x_min":0,"x_max":0,"o":"m 519 817 l 633 817 l 475 1007 l 333 1007 l 176 817 l 282 817 l 401 942 z m 571 203 b 369 86 522 126 449 86 b 200 233 271 86 200 142 b 369 376 200 321 260 376 b 571 304 444 376 517 347 z m 140 665 l 140 550 b 367 615 206 592 289 615 b 565 431 500 615 565 553 l 565 394 b 321 468 501 439 417 468 b 54 226 160 468 54 367 b 313 -14 54 85 165 -14 b 571 110 415 -14 507 28 l 571 0 l 707 0 l 707 436 b 392 726 707 618 604 726 b 140 665 292 726 203 703 z "},"ä":{"ha":811,"x_min":0,"x_max":0,"o":"m 468 825 l 585 825 l 585 1010 l 468 1010 z m 225 825 l 342 825 l 342 1010 l 225 1010 z m 571 203 b 369 86 522 126 449 86 b 200 233 271 86 200 142 b 369 376 200 321 260 376 b 571 304 444 376 517 347 z m 140 665 l 140 550 b 367 615 206 592 289 615 b 565 431 500 615 565 553 l 565 394 b 321 468 501 439 417 468 b 54 226 160 468 54 367 b 313 -14 54 85 165 -14 b 571 110 415 -14 507 28 l 571 0 l 707 0 l 707 436 b 392 726 707 618 604 726 b 140 665 292 726 203 703 z "},"à":{"ha":811,"x_min":0,"x_max":0,"o":"m 357 1007 l 206 1007 l 376 817 l 497 817 z m 571 203 b 369 86 522 126 449 86 b 200 233 271 86 200 142 b 369 376 200 321 260 376 b 571 304 444 376 517 347 z m 140 665 l 140 550 b 367 615 206 592 289 615 b 565 431 500 615 565 553 l 565 394 b 321 468 501 439 417 468 b 54 226 160 468 54 367 b 313 -14 54 85 165 -14 b 571 110 415 -14 507 28 l 571 0 l 707 0 l 707 436 b 392 726 707 618 604 726 b 140 665 292 726 203 703 z "},"å":{"ha":811,"x_min":0,"x_max":0,"o":"m 406 1082 b 256 936 319 1082 256 1021 b 406 790 256 853 319 790 b 554 936 490 790 554 851 b 406 1082 554 1018 490 1082 z m 406 863 b 333 938 363 863 333 893 b 406 1010 333 979 363 1010 b 478 938 447 1010 478 981 b 406 863 478 893 447 863 z m 571 203 b 369 86 522 126 449 86 b 200 233 271 86 200 142 b 369 376 200 321 260 376 b 571 304 444 376 517 347 z m 140 665 l 140 550 b 367 615 206 592 289 615 b 565 431 500 615 565 553 l 565 394 b 321 468 501 439 417 468 b 54 226 160 468 54 367 b 313 -14 54 85 165 -14 b 571 110 415 -14 507 28 l 571 0 l 707 0 l 707 436 b 392 726 707 618 604 726 b 140 665 292 726 203 703 z "},"ã":{"ha":811,"x_min":0,"x_max":0,"o":"m 508 911 b 299 1004 439 911 401 1004 b 151 825 207 1004 154 932 l 239 825 b 310 917 244 888 274 917 b 513 824 371 917 407 824 b 661 1000 603 824 660 907 l 574 1000 b 508 911 571 947 547 911 z m 571 203 b 369 86 522 126 449 86 b 200 233 271 86 200 142 b 369 376 200 321 260 376 b 571 304 444 376 517 347 z m 140 665 l 140 550 b 367 615 206 592 289 615 b 565 431 500 615 565 553 l 565 394 b 321 468 501 439 417 468 b 54 226 160 468 54 367 b 313 -14 54 85 165 -14 b 571 110 415 -14 507 28 l 571 0 l 707 0 l 707 436 b 392 726 707 618 604 726 b 140 665 292 726 203 703 z "},"ă":{"ha":811,"x_min":0,"x_max":0,"o":"m 529 1006 b 397 901 511 940 474 901 b 267 1006 322 901 283 940 l 176 1006 b 397 815 189 896 265 815 b 619 1006 529 815 606 896 z m 571 203 b 369 86 522 126 449 86 b 200 233 271 86 200 142 b 369 376 200 321 260 376 b 571 304 444 376 517 347 z m 140 665 l 140 550 b 367 615 206 592 289 615 b 565 431 500 615 565 553 l 565 394 b 321 468 501 439 417 468 b 54 226 160 468 54 367 b 313 -14 54 85 165 -14 b 571 110 415 -14 507 28 l 571 0 l 707 0 l 707 436 b 392 726 707 618 604 726 b 140 665 292 726 203 703 z "},"ā":{"ha":811,"x_min":0,"x_max":0,"o":"m 194 860 l 615 860 l 615 965 l 194 965 z m 571 203 b 369 86 522 126 449 86 b 200 233 271 86 200 142 b 369 376 200 321 260 376 b 571 304 444 376 517 347 z m 140 665 l 140 550 b 367 615 206 592 289 615 b 565 431 500 615 565 553 l 565 394 b 321 468 501 439 417 468 b 54 226 160 468 54 367 b 313 -14 54 85 165 -14 b 571 110 415 -14 507 28 l 571 0 l 707 0 l 707 436 b 392 726 707 618 604 726 b 140 665 292 726 203 703 z "},"ą":{"ha":811,"x_min":0,"x_max":0,"o":"m 708 -256 l 708 -175 b 601 -214 681 -196 640 -214 b 511 -143 550 -214 511 -189 b 640 0 511 -93 554 -53 l 707 0 l 707 436 b 392 726 707 618 604 726 b 140 665 292 726 203 703 l 140 550 b 367 615 206 592 289 615 b 565 431 500 615 565 553 l 565 394 b 321 468 501 439 417 468 b 54 226 160 468 54 367 b 313 -14 54 85 165 -14 b 571 110 415 -14 507 28 l 571 13 b 410 -167 489 -29 410 -86 b 576 -293 410 -244 483 -293 b 708 -256 628 -293 665 -282 z m 571 203 b 369 86 522 126 449 86 b 200 233 271 86 200 142 b 369 376 200 321 260 376 b 571 304 444 376 517 347 z "},"ç":{"ha":710,"x_min":0,"x_max":0,"o":"m 406 -290 b 563 -172 500 -290 563 -243 b 433 -74 563 -110 513 -74 l 406 -74 l 418 -14 b 425 -14 419 -14 422 -14 b 653 50 533 -14 607 17 l 653 169 b 451 101 592 125 535 101 b 194 356 282 101 194 204 b 453 610 194 507 286 610 b 643 544 532 610 606 576 l 643 668 b 429 726 596 706 525 726 b 57 356 203 726 57 574 b 358 -10 57 160 174 18 l 335 -131 l 401 -131 b 469 -176 442 -131 469 -144 b 397 -224 469 -211 438 -224 b 281 -196 350 -224 318 -212 l 281 -265 b 406 -290 319 -282 351 -290 z "},"ć":{"ha":710,"x_min":0,"x_max":0,"o":"m 297 817 l 419 817 l 590 1007 l 439 1007 z m 453 610 b 643 544 532 610 606 576 l 643 668 b 429 726 596 706 525 726 b 57 356 203 726 57 574 b 425 -14 57 138 201 -14 b 653 50 533 -14 607 17 l 653 169 b 451 101 592 125 535 101 b 194 356 282 101 194 204 b 453 610 194 507 286 610 z "},"č":{"ha":710,"x_min":0,"x_max":0,"o":"m 311 817 l 453 817 l 611 1007 l 497 1007 l 379 883 l 260 1007 l 154 1007 z m 453 610 b 643 544 532 610 606 576 l 643 668 b 429 726 596 706 525 726 b 57 356 203 726 57 574 b 425 -14 57 138 201 -14 b 653 50 533 -14 607 17 l 653 169 b 451 101 592 125 535 101 b 194 356 282 101 194 204 b 453 610 194 507 286 610 z "},"ĉ":{"ha":710,"x_min":0,"x_max":0,"o":"m 500 817 l 614 817 l 456 1007 l 314 1007 l 157 817 l 263 817 l 382 942 z m 453 610 b 643 544 532 610 606 576 l 643 668 b 429 726 596 706 525 726 b 57 356 203 726 57 574 b 425 -14 57 138 201 -14 b 653 50 533 -14 607 17 l 653 169 b 451 101 592 125 535 101 b 194 356 282 101 194 204 b 453 610 194 507 286 610 z "},"ċ":{"ha":710,"x_min":0,"x_max":0,"o":"m 447 1010 l 313 1010 l 313 825 l 447 825 z m 453 610 b 643 544 532 610 606 576 l 643 668 b 429 726 596 706 525 726 b 57 356 203 726 57 574 b 425 -14 57 138 201 -14 b 653 50 533 -14 607 17 l 653 169 b 451 101 592 125 535 101 b 194 356 282 101 194 204 b 453 610 194 507 286 610 z "},"ď":{"ha":1021,"x_min":0,"x_max":0,"o":"m 890 986 l 890 831 l 950 831 b 888 708 944 786 925 742 l 921 681 b 1029 889 1003 736 1029 807 l 1029 986 z m 653 475 l 653 240 b 428 103 600 153 518 103 b 194 358 289 103 194 199 b 428 610 194 515 289 610 b 653 475 518 610 603 561 z m 653 124 l 653 0 l 789 0 l 789 1028 l 653 1004 l 653 603 b 399 726 597 676 510 726 b 57 358 200 726 57 576 b 399 -14 57 139 204 -14 b 653 124 508 -14 594 38 z "},"đ":{"ha":897,"x_min":0,"x_max":0,"o":"m 653 475 l 653 240 b 428 103 600 153 518 103 b 194 358 289 103 194 199 b 428 610 194 515 289 610 b 653 475 518 610 603 561 z m 653 124 l 653 0 l 789 0 l 789 824 l 872 824 l 872 903 l 789 903 l 789 1028 l 653 1004 l 653 903 l 372 903 l 372 824 l 653 824 l 653 603 b 399 726 597 676 510 726 b 57 358 200 726 57 576 b 399 -14 57 139 204 -14 b 653 124 508 -14 594 38 z "},"é":{"ha":796,"x_min":0,"x_max":0,"o":"m 306 817 l 428 817 l 599 1007 l 447 1007 z m 414 618 b 614 413 529 618 614 540 l 194 413 b 414 618 213 547 306 618 z m 685 47 l 685 161 b 457 97 628 122 538 97 b 194 318 317 97 213 176 l 739 318 b 744 399 743 339 744 374 b 418 726 743 590 610 726 b 57 364 207 726 57 576 b 454 -14 57 142 217 -14 b 685 47 544 -14 632 10 z "},"ê":{"ha":796,"x_min":0,"x_max":0,"o":"m 521 817 l 635 817 l 476 1007 l 335 1007 l 178 817 l 283 817 l 403 942 z m 414 618 b 614 413 529 618 614 540 l 194 413 b 414 618 213 547 306 618 z m 685 47 l 685 161 b 457 97 628 122 538 97 b 194 318 317 97 213 176 l 739 318 b 744 399 743 339 744 374 b 418 726 743 590 610 726 b 57 364 207 726 57 576 b 454 -14 57 142 217 -14 b 685 47 544 -14 632 10 z "},"ë":{"ha":796,"x_min":0,"x_max":0,"o":"m 460 825 l 576 825 l 576 1010 l 460 1010 z m 217 825 l 333 825 l 333 1010 l 217 1010 z m 414 618 b 614 413 529 618 614 540 l 194 413 b 414 618 213 547 306 618 z m 685 47 l 685 161 b 457 97 628 122 538 97 b 194 318 317 97 213 176 l 739 318 b 744 399 743 339 744 374 b 418 726 743 590 610 726 b 57 364 207 726 57 576 b 454 -14 57 142 217 -14 b 685 47 544 -14 632 10 z "},"è":{"ha":796,"x_min":0,"x_max":0,"o":"m 358 1007 l 207 1007 l 378 817 l 499 817 z m 414 618 b 614 413 529 618 614 540 l 194 413 b 414 618 213 547 306 618 z m 685 47 l 685 161 b 457 97 628 122 538 97 b 194 318 317 97 213 176 l 739 318 b 744 399 743 339 744 374 b 418 726 743 590 610 726 b 57 364 207 726 57 576 b 454 -14 57 142 217 -14 b 685 47 544 -14 632 10 z "},"ĕ":{"ha":796,"x_min":0,"x_max":0,"o":"m 531 1006 b 399 901 513 940 475 901 b 268 1006 324 901 285 940 l 178 1006 b 399 815 190 896 267 815 b 621 1006 531 815 607 896 z m 414 618 b 614 413 529 618 614 540 l 194 413 b 414 618 213 547 306 618 z m 685 47 l 685 161 b 457 97 628 122 538 97 b 194 318 317 97 213 176 l 739 318 b 744 399 743 339 744 374 b 418 726 743 590 610 726 b 57 364 207 726 57 576 b 454 -14 57 142 217 -14 b 685 47 544 -14 632 10 z "},"ě":{"ha":796,"x_min":0,"x_max":0,"o":"m 339 817 l 481 817 l 639 1007 l 525 1007 l 407 883 l 288 1007 l 182 1007 z m 414 618 b 614 413 529 618 614 540 l 194 413 b 414 618 213 547 306 618 z m 685 47 l 685 161 b 457 97 628 122 538 97 b 194 318 317 97 213 176 l 739 318 b 744 399 743 339 744 374 b 418 726 743 590 610 726 b 57 364 207 726 57 576 b 454 -14 57 142 217 -14 b 685 47 544 -14 632 10 z "},"ė":{"ha":796,"x_min":0,"x_max":0,"o":"m 475 1010 l 340 1010 l 340 825 l 475 825 z m 414 618 b 614 413 529 618 614 540 l 194 413 b 414 618 213 547 306 618 z m 685 47 l 685 161 b 457 97 628 122 538 97 b 194 318 317 97 213 176 l 739 318 b 744 399 743 339 744 374 b 418 726 743 590 610 726 b 57 364 207 726 57 576 b 454 -14 57 142 217 -14 b 685 47 544 -14 632 10 z "},"ē":{"ha":796,"x_min":0,"x_max":0,"o":"m 197 860 l 618 860 l 618 965 l 197 965 z m 414 618 b 614 413 529 618 614 540 l 194 413 b 414 618 213 547 306 618 z m 685 47 l 685 161 b 457 97 628 122 538 97 b 194 318 317 97 213 176 l 739 318 b 744 399 743 339 744 374 b 418 726 743 590 610 726 b 57 364 207 726 57 576 b 454 -14 57 142 217 -14 b 685 47 544 -14 632 10 z "},"ę":{"ha":796,"x_min":0,"x_max":0,"o":"m 619 -256 l 619 -175 b 511 -214 590 -196 550 -214 b 421 -143 460 -214 421 -189 b 528 -8 421 -97 460 -56 b 685 47 592 0 646 19 l 685 161 b 457 97 628 122 538 97 b 194 318 317 97 213 176 l 739 318 b 744 399 743 339 744 374 b 418 726 743 590 610 726 b 57 364 207 726 57 576 b 429 -14 57 150 206 -3 b 319 -167 368 -53 319 -103 b 486 -293 319 -244 393 -293 b 619 -256 539 -293 575 -282 z m 414 618 b 614 413 529 618 614 540 l 194 413 b 414 618 213 547 306 618 z "},"ğ":{"ha":897,"x_min":0,"x_max":0,"o":"m 571 1006 b 439 901 553 940 515 901 b 308 1006 364 901 325 940 l 218 1006 b 439 815 231 896 307 815 b 661 1006 571 815 647 896 z m 653 478 l 653 239 b 428 103 597 153 518 103 b 194 358 289 103 194 199 b 428 610 194 515 289 610 b 653 478 518 610 603 560 z m 653 125 l 653 38 b 418 -182 653 -99 565 -182 b 271 -153 372 -182 317 -172 l 271 -268 b 429 -297 310 -286 371 -297 b 789 56 643 -297 789 -169 l 789 713 l 653 713 l 653 601 b 399 726 599 679 504 726 b 57 358 200 726 57 576 b 397 -14 57 131 204 -14 b 653 125 508 -14 596 38 z "},"ĝ":{"ha":897,"x_min":0,"x_max":0,"o":"m 556 817 l 669 817 l 511 1007 l 369 1007 l 213 817 l 318 817 l 438 942 z m 653 478 l 653 239 b 428 103 597 153 518 103 b 194 358 289 103 194 199 b 428 610 194 515 289 610 b 653 478 518 610 603 560 z m 653 125 l 653 38 b 418 -182 653 -99 565 -182 b 271 -153 372 -182 317 -172 l 271 -268 b 429 -297 310 -286 371 -297 b 789 56 643 -297 789 -169 l 789 713 l 653 713 l 653 601 b 399 726 599 679 504 726 b 57 358 200 726 57 576 b 397 -14 57 131 204 -14 b 653 125 508 -14 596 38 z "},"ģ":{"ha":897,"x_min":0,"x_max":0,"o":"m 507 815 l 507 964 l 447 964 b 510 1067 453 1000 471 1040 l 475 1094 b 368 906 394 1046 368 979 l 368 815 z m 653 478 l 653 239 b 428 103 597 153 518 103 b 194 358 289 103 194 199 b 428 610 194 515 289 610 b 653 478 518 610 603 560 z m 653 125 l 653 38 b 418 -182 653 -99 565 -182 b 271 -153 372 -182 317 -172 l 271 -268 b 429 -297 310 -286 371 -297 b 789 56 643 -297 789 -169 l 789 713 l 653 713 l 653 601 b 399 726 599 679 504 726 b 57 358 200 726 57 576 b 397 -14 57 131 204 -14 b 653 125 508 -14 596 38 z "},"ġ":{"ha":897,"x_min":0,"x_max":0,"o":"m 510 1010 l 375 1010 l 375 825 l 510 825 z m 653 478 l 653 239 b 428 103 597 153 518 103 b 194 358 289 103 194 199 b 428 610 194 515 289 610 b 653 478 518 610 603 560 z m 653 125 l 653 38 b 418 -182 653 -99 565 -182 b 271 -153 372 -182 317 -172 l 271 -268 b 429 -297 310 -286 371 -297 b 789 56 643 -297 789 -169 l 789 713 l 653 713 l 653 601 b 399 726 599 679 504 726 b 57 358 200 726 57 576 b 397 -14 57 131 204 -14 b 653 125 508 -14 596 38 z "},"ħ":{"ha":860,"x_min":0,"x_max":0,"o":"m 243 482 b 456 607 285 550 363 607 b 622 439 567 607 622 549 l 622 0 l 758 0 l 758 453 b 500 726 758 629 674 726 b 243 593 385 726 293 668 l 243 824 l 532 824 l 532 903 l 243 903 l 243 1028 l 108 1004 l 108 903 l 32 903 l 32 824 l 108 824 l 108 0 l 243 0 z "},"ĥ":{"ha":860,"x_min":0,"x_max":0,"o":"m 483 1072 l 599 1072 l 440 1264 l 299 1264 l 140 1072 l 247 1072 l 365 1199 z m 243 1028 l 108 1004 l 108 0 l 243 0 l 243 482 b 456 607 285 550 363 607 b 622 439 567 607 622 549 l 622 0 l 758 0 l 758 453 b 500 726 758 629 674 726 b 243 593 385 726 293 668 z "},"í":{"ha":351,"x_min":0,"x_max":0,"o":"m 96 817 l 218 817 l 389 1007 l 238 1007 z m 243 713 l 108 713 l 108 0 l 243 0 z "},"î":{"ha":351,"x_min":0,"x_max":0,"o":"m 290 817 l 404 817 l 246 1007 l 104 1007 l -53 817 l 53 817 l 172 942 z m 243 713 l 108 713 l 108 0 l 243 0 z "},"ï":{"ha":351,"x_min":0,"x_max":0,"o":"m 239 825 l 356 825 l 356 1010 l 239 1010 z m -4 825 l 113 825 l 113 1010 l -4 1010 z m 243 713 l 108 713 l 108 0 l 243 0 z "},"ì":{"ha":351,"x_min":0,"x_max":0,"o":"m 136 1007 l -15 1007 l 156 817 l 276 817 z m 243 713 l 108 713 l 108 0 l 243 0 z "},"ĭ":{"ha":351,"x_min":0,"x_max":0,"o":"m 300 1006 b 168 901 282 940 244 901 b 38 1006 93 901 54 940 l -53 1006 b 168 815 -40 896 36 815 b 390 1006 300 815 376 896 z m 243 713 l 108 713 l 108 0 l 243 0 z "},"":{"ha":351,"x_min":0,"x_max":0,"o":"m 243 1010 l 108 1010 l 108 825 l 243 825 z m 243 713 l 108 713 l 108 0 l 243 0 z "},"ī":{"ha":351,"x_min":0,"x_max":0,"o":"m -35 860 l 386 860 l 386 965 l -35 965 z m 243 713 l 108 713 l 108 0 l 243 0 z "},"į":{"ha":351,"x_min":0,"x_max":0,"o":"m 243 1010 l 108 1010 l 108 825 l 243 825 z m 251 -257 l 251 -176 b 147 -214 224 -197 185 -214 b 67 -146 100 -214 67 -192 b 183 0 67 -94 108 -51 l 243 0 l 243 713 l 108 713 l 108 14 b -35 -168 36 -28 -35 -90 b 124 -294 -35 -247 35 -294 b 251 -257 174 -294 210 -282 z "},"ĩ":{"ha":351,"x_min":0,"x_max":0,"o":"m 279 911 b 69 1004 210 911 172 1004 b -78 825 -22 1004 -75 932 l 10 825 b 81 917 15 888 44 917 b 283 824 142 917 178 824 b 432 1000 374 824 431 907 l 344 1000 b 279 911 342 947 318 911 z m 243 713 l 108 713 l 108 0 l 243 0 z "},"ĵ":{"ha":363,"x_min":0,"x_max":0,"o":"m 296 817 l 410 817 l 251 1007 l 110 1007 l -47 817 l 58 817 l 178 942 z m 118 -54 b 14 -182 118 -144 81 -182 b -29 -179 0 -182 -14 -181 l -29 -287 b 51 -297 -6 -293 22 -297 b 254 -47 181 -297 254 -211 l 254 713 l 118 713 z "},"ĳ":{"ha":715,"x_min":0,"x_max":0,"o":"m 469 825 l 606 825 l 606 1010 l 469 1010 z m 243 1010 l 108 1010 l 108 825 l 243 825 z m 243 713 l 108 713 l 108 0 l 243 0 z m 469 -54 b 365 -182 469 -144 432 -182 b 322 -179 351 -182 338 -181 l 322 -287 b 403 -297 346 -293 374 -297 b 606 -47 532 -297 606 -211 l 606 713 l 469 713 z "},"ķ":{"ha":782,"x_min":0,"x_max":0,"o":"m 594 0 l 760 0 l 425 400 l 725 713 l 569 713 l 243 364 l 243 1028 l 108 1004 l 108 0 l 243 0 l 243 210 l 336 306 z m 322 -89 l 322 -243 l 382 -243 b 319 -340 376 -279 357 -314 l 353 -368 b 461 -185 432 -324 461 -258 l 461 -89 z "},"ĺ":{"ha":351,"x_min":0,"x_max":0,"o":"m 97 1089 l 219 1089 l 389 1281 l 239 1281 z m 243 0 l 243 1028 l 108 1004 l 108 0 z "},"ľ":{"ha":475,"x_min":0,"x_max":0,"o":"m 243 0 l 243 1028 l 108 1004 l 108 0 z m 344 986 l 344 831 l 404 831 b 342 708 399 786 379 742 l 375 681 b 483 889 457 736 483 807 l 483 986 z "},"ļ":{"ha":351,"x_min":0,"x_max":0,"o":"m 243 0 l 243 1028 l 108 1004 l 108 0 z m 108 -89 l 108 -243 l 168 -243 b 106 -340 163 -279 143 -314 l 139 -368 b 247 -185 218 -324 247 -258 l 247 -89 z "},"ŀ":{"ha":490,"x_min":0,"x_max":0,"o":"m 243 0 l 243 1028 l 108 1004 l 108 0 z m 339 575 l 339 406 l 490 406 l 490 575 z "},"ñ":{"ha":860,"x_min":0,"x_max":0,"o":"m 532 911 b 322 1004 463 911 425 1004 b 175 825 231 1004 178 932 l 263 825 b 333 917 268 888 297 917 b 536 824 394 917 431 824 b 685 1000 626 824 683 907 l 597 1000 b 532 911 594 947 571 911 z m 236 713 l 108 713 l 108 0 l 243 0 l 243 481 b 456 607 285 550 363 607 b 622 439 567 607 622 549 l 622 0 l 758 0 l 758 453 b 500 726 758 629 674 726 b 236 583 378 726 286 663 z "},"ń":{"ha":860,"x_min":0,"x_max":0,"o":"m 318 817 l 440 817 l 611 1007 l 460 1007 z m 236 713 l 108 713 l 108 0 l 243 0 l 243 481 b 456 607 285 550 363 607 b 622 439 567 607 622 549 l 622 0 l 758 0 l 758 453 b 500 726 758 629 674 726 b 236 583 378 726 286 663 z "},"ň":{"ha":860,"x_min":0,"x_max":0,"o":"m 357 817 l 499 817 l 657 1007 l 543 1007 l 425 883 l 306 1007 l 200 1007 z m 236 713 l 108 713 l 108 0 l 243 0 l 243 481 b 456 607 285 550 363 607 b 622 439 567 607 622 549 l 622 0 l 758 0 l 758 453 b 500 726 758 629 674 726 b 236 583 378 726 286 663 z "},"ņ":{"ha":860,"x_min":0,"x_max":0,"o":"m 236 713 l 108 713 l 108 0 l 243 0 l 243 481 b 456 607 285 550 363 607 b 622 439 567 607 622 549 l 622 0 l 758 0 l 758 453 b 500 726 758 629 674 726 b 236 583 378 726 286 663 z m 361 -89 l 361 -243 l 421 -243 b 358 -340 415 -279 396 -314 l 392 -368 b 500 -185 471 -324 500 -258 l 500 -89 z "},"ó":{"ha":863,"x_min":0,"x_max":0,"o":"m 324 817 l 446 817 l 617 1007 l 465 1007 z m 806 356 b 431 726 806 572 643 726 b 57 356 219 726 57 572 b 431 -14 57 140 219 -14 b 806 356 643 -14 806 140 z m 667 356 b 431 100 667 201 568 100 b 194 356 293 100 194 201 b 431 611 194 511 293 611 b 667 356 568 611 667 511 z "},"ô":{"ha":863,"x_min":0,"x_max":0,"o":"m 544 817 l 658 817 l 500 1007 l 358 1007 l 201 817 l 307 817 l 426 942 z m 806 356 b 431 726 806 572 643 726 b 57 356 219 726 57 572 b 431 -14 57 140 219 -14 b 806 356 643 -14 806 140 z m 667 356 b 431 100 667 201 568 100 b 194 356 293 100 194 201 b 431 611 194 511 293 611 b 667 356 568 611 667 511 z "},"ö":{"ha":863,"x_min":0,"x_max":0,"o":"m 493 825 l 610 825 l 610 1010 l 493 1010 z m 250 825 l 367 825 l 367 1010 l 250 1010 z m 806 356 b 431 726 806 572 643 726 b 57 356 219 726 57 572 b 431 -14 57 140 219 -14 b 806 356 643 -14 806 140 z m 667 356 b 431 100 667 201 568 100 b 194 356 293 100 194 201 b 431 611 194 511 293 611 b 667 356 568 611 667 511 z "},"ò":{"ha":863,"x_min":0,"x_max":0,"o":"m 381 1007 l 229 1007 l 400 817 l 521 817 z m 806 356 b 431 726 806 572 643 726 b 57 356 219 726 57 572 b 431 -14 57 140 219 -14 b 806 356 643 -14 806 140 z m 667 356 b 431 100 667 201 568 100 b 194 356 293 100 194 201 b 431 611 194 511 293 611 b 667 356 568 611 667 511 z "},"õ":{"ha":863,"x_min":0,"x_max":0,"o":"m 533 911 b 324 1004 464 911 426 1004 b 176 825 232 1004 179 932 l 264 825 b 335 917 269 888 299 917 b 538 824 396 917 432 824 b 686 1000 628 824 685 907 l 599 1000 b 533 911 596 947 572 911 z m 806 356 b 431 726 806 572 643 726 b 57 356 219 726 57 572 b 431 -14 57 140 219 -14 b 806 356 643 -14 806 140 z m 667 356 b 431 100 667 201 568 100 b 194 356 293 100 194 201 b 431 611 194 511 293 611 b 667 356 568 611 667 511 z "},"ŏ":{"ha":863,"x_min":0,"x_max":0,"o":"m 554 1006 b 422 901 536 940 499 901 b 292 1006 347 901 308 940 l 201 1006 b 422 815 214 896 290 815 b 644 1006 554 815 631 896 z m 806 356 b 431 726 806 572 643 726 b 57 356 219 726 57 572 b 431 -14 57 140 219 -14 b 806 356 643 -14 806 140 z m 667 356 b 431 100 667 201 568 100 b 194 356 293 100 194 201 b 431 611 194 511 293 611 b 667 356 568 611 667 511 z "},"ő":{"ha":863,"x_min":0,"x_max":0,"o":"m 457 817 l 576 817 l 750 1007 l 600 1007 z m 203 817 l 324 817 l 497 1007 l 347 1007 z m 806 356 b 431 726 806 572 643 726 b 57 356 219 726 57 572 b 431 -14 57 140 219 -14 b 806 356 643 -14 806 140 z m 667 356 b 431 100 667 201 568 100 b 194 356 293 100 194 201 b 431 611 194 511 293 611 b 667 356 568 611 667 511 z "},"ō":{"ha":863,"x_min":0,"x_max":0,"o":"m 219 860 l 640 860 l 640 965 l 219 965 z m 806 356 b 431 726 806 572 643 726 b 57 356 219 726 57 572 b 431 -14 57 140 219 -14 b 806 356 643 -14 806 140 z m 667 356 b 431 100 667 201 568 100 b 194 356 293 100 194 201 b 431 611 194 511 293 611 b 667 356 568 611 667 511 z "},"ŕ":{"ha":533,"x_min":0,"x_max":0,"o":"m 157 817 l 279 817 l 450 1007 l 299 1007 z m 500 710 b 424 726 479 719 453 726 b 243 585 346 726 276 676 l 243 713 l 108 713 l 108 0 l 243 0 l 243 475 b 411 599 276 550 338 599 b 500 581 442 599 478 592 z "},"ř":{"ha":533,"x_min":0,"x_max":0,"o":"m 222 817 l 364 817 l 522 1007 l 408 1007 l 290 883 l 171 1007 l 65 1007 z m 500 710 b 424 726 479 719 453 726 b 243 585 346 726 276 676 l 243 713 l 108 713 l 108 0 l 243 0 l 243 475 b 411 599 276 550 338 599 b 500 581 442 599 478 592 z "},"ŗ":{"ha":533,"x_min":0,"x_max":0,"o":"m 500 710 b 424 726 479 719 453 726 b 243 585 346 726 276 676 l 243 713 l 108 713 l 108 0 l 243 0 l 243 475 b 411 599 276 550 338 599 b 500 581 442 599 478 592 z m 111 -89 l 111 -243 l 171 -243 b 108 -340 165 -279 146 -314 l 142 -368 b 250 -185 221 -324 250 -258 l 250 -89 z "},"š":{"ha":658,"x_min":0,"x_max":0,"o":"m 253 817 l 394 817 l 553 1007 l 439 1007 l 321 883 l 201 1007 l 96 1007 z m 194 524 b 349 614 194 582 250 614 b 565 557 432 614 510 589 l 565 678 b 344 726 511 706 439 726 b 61 518 182 726 61 650 b 282 317 61 414 132 361 b 478 193 424 275 478 253 b 329 97 478 119 404 97 b 71 168 224 97 132 126 l 71 46 b 324 -14 129 10 215 -14 b 613 201 471 -14 613 44 b 372 417 613 322 529 372 b 194 524 239 454 194 472 z "},"ś":{"ha":658,"x_min":0,"x_max":0,"o":"m 218 817 l 340 817 l 511 1007 l 360 1007 z m 194 524 b 349 614 194 582 250 614 b 565 557 432 614 510 589 l 565 678 b 344 726 511 706 439 726 b 61 518 182 726 61 650 b 282 317 61 414 132 361 b 478 193 424 275 478 253 b 329 97 478 119 404 97 b 71 168 224 97 132 126 l 71 46 b 324 -14 129 10 215 -14 b 613 201 471 -14 613 44 b 372 417 613 322 529 372 b 194 524 239 454 194 472 z "},"ş":{"ha":658,"x_min":0,"x_max":0,"o":"m 325 -290 b 482 -172 419 -290 482 -243 b 353 -74 482 -110 432 -74 l 325 -74 l 338 -14 b 613 201 479 -10 613 49 b 372 417 613 322 529 372 b 194 524 239 454 194 472 b 349 614 194 582 250 614 b 565 557 432 614 510 589 l 565 678 b 344 726 511 706 439 726 b 61 518 182 726 61 650 b 282 317 61 414 132 361 b 478 193 424 275 478 253 b 329 97 478 119 404 97 b 71 168 224 97 132 126 l 71 46 b 278 -12 121 15 190 -7 l 254 -131 l 321 -131 b 389 -176 361 -131 389 -144 b 317 -224 389 -211 357 -224 b 200 -196 269 -224 238 -212 l 200 -265 b 325 -290 239 -282 271 -290 z "},"ŝ":{"ha":658,"x_min":0,"x_max":0,"o":"m 444 817 l 558 817 l 400 1007 l 258 1007 l 101 817 l 207 817 l 326 942 z m 194 524 b 349 614 194 582 250 614 b 565 557 432 614 510 589 l 565 678 b 344 726 511 706 439 726 b 61 518 182 726 61 650 b 282 317 61 414 132 361 b 478 193 424 275 478 253 b 329 97 478 119 404 97 b 71 168 224 97 132 126 l 71 46 b 324 -14 129 10 215 -14 b 613 201 471 -14 613 44 b 372 417 613 322 529 372 b 194 524 239 454 194 472 z "},"ș":{"ha":658,"x_min":0,"x_max":0,"o":"m 194 524 b 349 614 194 582 250 614 b 565 557 432 614 510 589 l 565 678 b 344 726 511 706 439 726 b 61 518 182 726 61 650 b 282 317 61 414 132 361 b 478 193 424 275 478 253 b 329 97 478 119 404 97 b 71 168 224 97 132 126 l 71 46 b 324 -14 129 10 215 -14 b 613 201 471 -14 613 44 b 372 417 613 322 529 372 b 194 524 239 454 194 472 z m 263 -89 l 263 -243 l 322 -243 b 260 -340 317 -279 297 -314 l 293 -368 b 401 -185 372 -324 401 -258 l 401 -89 z "},"ŧ":{"ha":497,"x_min":0,"x_max":0,"o":"m 443 4 l 443 124 b 357 108 413 114 386 108 b 254 226 307 108 254 124 l 254 367 l 440 367 l 440 464 l 254 464 l 254 615 l 440 615 l 440 713 l 254 713 l 254 894 l 118 872 l 118 713 l 13 713 l 13 614 l 118 614 l 118 464 l 13 464 l 13 367 l 118 367 l 118 208 b 332 -14 118 43 200 -14 b 443 4 367 -14 408 -6 z "},"ť":{"ha":497,"x_min":0,"x_max":0,"o":"m 315 1063 l 315 907 l 375 907 b 315 793 369 865 351 825 l 350 765 b 454 965 429 817 454 886 l 454 1063 z m 443 4 l 443 124 b 357 108 413 114 386 108 b 254 226 307 108 254 124 l 254 606 l 440 606 l 440 713 l 254 713 l 254 894 l 118 872 l 118 713 l 13 713 l 13 604 l 118 604 l 118 208 b 332 -14 118 43 200 -14 b 443 4 367 -14 408 -6 z "},"ţ":{"ha":497,"x_min":0,"x_max":0,"o":"m 443 4 l 443 124 b 357 108 413 114 386 108 b 254 226 307 108 254 124 l 254 606 l 440 606 l 440 713 l 254 713 l 254 894 l 118 872 l 118 713 l 13 713 l 13 604 l 118 604 l 118 208 b 332 -14 118 43 200 -14 b 443 4 367 -14 408 -6 z m 182 -89 l 182 -243 l 242 -243 b 179 -340 236 -279 217 -314 l 213 -368 b 321 -185 292 -324 321 -258 l 321 -89 z "},"ț":{"ha":497,"x_min":0,"x_max":0,"o":"m 443 4 l 443 124 b 357 108 413 114 386 108 b 254 226 307 108 254 124 l 254 606 l 440 606 l 440 713 l 254 713 l 254 894 l 118 872 l 118 713 l 13 713 l 13 604 l 118 604 l 118 208 b 332 -14 118 43 200 -14 b 443 4 367 -14 408 -6 z m 182 -89 l 182 -243 l 242 -243 b 179 -340 236 -279 217 -314 l 213 -368 b 321 -185 292 -324 321 -258 l 321 -89 z "},"ú":{"ha":839,"x_min":0,"x_max":0,"o":"m 317 817 l 439 817 l 610 1007 l 458 1007 z m 603 0 l 731 0 l 731 713 l 594 713 l 594 233 b 397 104 554 164 486 104 b 236 269 290 104 236 158 l 236 713 l 101 713 l 101 253 b 353 -14 101 85 182 -14 b 603 131 472 -14 553 51 z "},"û":{"ha":839,"x_min":0,"x_max":0,"o":"m 533 817 l 647 817 l 489 1007 l 347 1007 l 190 817 l 296 817 l 415 942 z m 603 0 l 731 0 l 731 713 l 594 713 l 594 233 b 397 104 554 164 486 104 b 236 269 290 104 236 158 l 236 713 l 101 713 l 101 253 b 353 -14 101 85 182 -14 b 603 131 472 -14 553 51 z "},"ü":{"ha":839,"x_min":0,"x_max":0,"o":"m 482 825 l 599 825 l 599 1010 l 482 1010 z m 239 825 l 356 825 l 356 1010 l 239 1010 z m 603 0 l 731 0 l 731 713 l 594 713 l 594 233 b 397 104 554 164 486 104 b 236 269 290 104 236 158 l 236 713 l 101 713 l 101 253 b 353 -14 101 85 182 -14 b 603 131 472 -14 553 51 z "},"ù":{"ha":839,"x_min":0,"x_max":0,"o":"m 390 1007 l 239 1007 l 410 817 l 531 817 z m 603 0 l 731 0 l 731 713 l 594 713 l 594 233 b 397 104 554 164 486 104 b 236 269 290 104 236 158 l 236 713 l 101 713 l 101 253 b 353 -14 101 85 182 -14 b 603 131 472 -14 553 51 z "},"ŭ":{"ha":839,"x_min":0,"x_max":0,"o":"m 543 1006 b 411 901 525 940 488 901 b 281 1006 336 901 297 940 l 190 1006 b 411 815 203 896 279 815 b 633 1006 543 815 619 896 z m 603 0 l 731 0 l 731 713 l 594 713 l 594 233 b 397 104 554 164 486 104 b 236 269 290 104 236 158 l 236 713 l 101 713 l 101 253 b 353 -14 101 85 182 -14 b 603 131 472 -14 553 51 z "},"ű":{"ha":839,"x_min":0,"x_max":0,"o":"m 451 817 l 571 817 l 744 1007 l 594 1007 z m 197 817 l 318 817 l 492 1007 l 342 1007 z m 603 0 l 731 0 l 731 713 l 594 713 l 594 233 b 397 104 554 164 486 104 b 236 269 290 104 236 158 l 236 713 l 101 713 l 101 253 b 353 -14 101 85 182 -14 b 603 131 472 -14 553 51 z "},"ū":{"ha":839,"x_min":0,"x_max":0,"o":"m 208 860 l 629 860 l 629 965 l 208 965 z m 603 0 l 731 0 l 731 713 l 594 713 l 594 233 b 397 104 554 164 486 104 b 236 269 290 104 236 158 l 236 713 l 101 713 l 101 253 b 353 -14 101 85 182 -14 b 603 131 472 -14 553 51 z "},"ų":{"ha":839,"x_min":0,"x_max":0,"o":"m 738 -256 l 738 -175 b 629 -214 710 -196 668 -214 b 540 -143 578 -214 540 -189 b 669 0 540 -93 583 -53 l 731 0 l 731 713 l 594 713 l 594 233 b 397 104 554 164 486 104 b 236 269 290 104 236 158 l 236 713 l 101 713 l 101 253 b 353 -14 101 85 182 -14 b 603 131 472 -14 553 51 l 603 17 b 438 -167 521 -25 438 -83 b 604 -293 438 -244 511 -293 b 738 -256 657 -293 694 -282 z "},"ů":{"ha":839,"x_min":0,"x_max":0,"o":"m 419 1082 b 269 936 333 1082 269 1021 b 419 790 269 853 333 790 b 568 936 504 790 568 851 b 419 1082 568 1018 504 1082 z m 419 863 b 347 938 376 863 347 893 b 419 1010 347 979 376 1010 b 492 938 461 1010 492 981 b 419 863 492 893 461 863 z m 603 0 l 731 0 l 731 713 l 594 713 l 594 233 b 397 104 554 164 486 104 b 236 269 290 104 236 158 l 236 713 l 101 713 l 101 253 b 353 -14 101 85 182 -14 b 603 131 472 -14 553 51 z "},"ũ":{"ha":839,"x_min":0,"x_max":0,"o":"m 522 911 b 313 1004 453 911 415 1004 b 165 825 221 1004 168 932 l 253 825 b 324 917 258 888 288 917 b 526 824 385 917 421 824 b 675 1000 617 824 674 907 l 588 1000 b 522 911 585 947 561 911 z m 603 0 l 731 0 l 731 713 l 594 713 l 594 233 b 397 104 554 164 486 104 b 236 269 290 104 236 158 l 236 713 l 101 713 l 101 253 b 353 -14 101 85 182 -14 b 603 131 472 -14 553 51 z "},"ẃ":{"ha":1171,"x_min":0,"x_max":0,"o":"m 496 817 l 618 817 l 789 1007 l 638 1007 z m 903 0 l 1156 713 l 1032 713 l 836 135 l 651 713 l 533 713 l 351 135 l 158 713 l 15 713 l 269 0 l 411 0 l 579 526 l 750 0 z "},"ŵ":{"ha":1171,"x_min":0,"x_max":0,"o":"m 699 817 l 813 817 l 654 1007 l 513 1007 l 356 817 l 461 817 l 581 942 z m 903 0 l 1156 713 l 1032 713 l 836 135 l 651 713 l 533 713 l 351 135 l 158 713 l 15 713 l 269 0 l 411 0 l 579 526 l 750 0 z "},"ẅ":{"ha":1171,"x_min":0,"x_max":0,"o":"m 647 825 l 764 825 l 764 1010 l 647 1010 z m 404 825 l 521 825 l 521 1010 l 404 1010 z m 903 0 l 1156 713 l 1032 713 l 836 135 l 651 713 l 533 713 l 351 135 l 158 713 l 15 713 l 269 0 l 411 0 l 579 526 l 750 0 z "},"ẁ":{"ha":1171,"x_min":0,"x_max":0,"o":"m 542 1007 l 390 1007 l 561 817 l 682 817 z m 903 0 l 1156 713 l 1032 713 l 836 135 l 651 713 l 533 713 l 351 135 l 158 713 l 15 713 l 269 0 l 411 0 l 579 526 l 750 0 z "},"ý":{"ha":779,"x_min":0,"x_max":0,"o":"m 301 817 l 424 817 l 594 1007 l 443 1007 z m 125 -297 b 469 31 281 -297 378 -179 l 763 713 l 626 713 l 394 149 l 154 713 l 17 713 l 331 -3 b 117 -182 279 -111 210 -182 b 61 -175 97 -182 78 -179 l 61 -287 b 125 -297 78 -293 101 -297 z "},"ÿ":{"ha":779,"x_min":0,"x_max":0,"o":"m 451 825 l 568 825 l 568 1010 l 451 1010 z m 208 825 l 325 825 l 325 1010 l 208 1010 z m 125 -297 b 469 31 281 -297 378 -179 l 763 713 l 626 713 l 394 149 l 154 713 l 17 713 l 331 -3 b 117 -182 279 -111 210 -182 b 61 -175 97 -182 78 -179 l 61 -287 b 125 -297 78 -293 101 -297 z "},"ŷ":{"ha":779,"x_min":0,"x_max":0,"o":"m 503 817 l 617 817 l 458 1007 l 317 1007 l 160 817 l 265 817 l 385 942 z m 125 -297 b 469 31 281 -297 378 -179 l 763 713 l 626 713 l 394 149 l 154 713 l 17 713 l 331 -3 b 117 -182 279 -111 210 -182 b 61 -175 97 -182 78 -179 l 61 -287 b 125 -297 78 -293 101 -297 z "},"ỳ":{"ha":779,"x_min":0,"x_max":0,"o":"m 350 1007 l 199 1007 l 369 817 l 490 817 z m 125 -297 b 469 31 281 -297 378 -179 l 763 713 l 626 713 l 394 149 l 154 713 l 17 713 l 331 -3 b 117 -182 279 -111 210 -182 b 61 -175 97 -182 78 -179 l 61 -287 b 125 -297 78 -293 101 -297 z "},"ž":{"ha":682,"x_min":0,"x_max":0,"o":"m 275 817 l 417 817 l 575 1007 l 461 1007 l 343 883 l 224 1007 l 118 1007 z m 633 111 l 219 111 l 631 617 l 631 713 l 57 713 l 57 600 l 458 600 l 49 94 l 49 0 l 633 0 z "},"ź":{"ha":682,"x_min":0,"x_max":0,"o":"m 239 817 l 361 817 l 532 1007 l 381 1007 z m 633 111 l 219 111 l 631 617 l 631 713 l 57 713 l 57 600 l 458 600 l 49 94 l 49 0 l 633 0 z "},"ż":{"ha":682,"x_min":0,"x_max":0,"o":"m 408 1010 l 274 1010 l 274 825 l 408 825 z m 633 111 l 219 111 l 631 617 l 631 713 l 57 713 l 57 600 l 458 600 l 49 94 l 49 0 l 633 0 z "},"´":{"ha":694,"x_min":0,"x_max":0,"o":"m 219 817 l 342 817 l 513 1007 l 361 1007 z "},"`":{"ha":694,"x_min":0,"x_max":0,"o":"m 318 1007 l 167 1007 l 338 817 l 458 817 z "},"ˆ":{"ha":694,"x_min":0,"x_max":0,"o":"m 461 817 l 575 817 l 417 1007 l 275 1007 l 118 817 l 224 817 l 343 942 z "},"ˇ":{"ha":694,"x_min":0,"x_max":0,"o":"m 275 817 l 417 817 l 575 1007 l 461 1007 l 343 883 l 224 1007 l 118 1007 z "},"˜":{"ha":694,"x_min":0,"x_max":0,"o":"m 450 911 b 240 1004 381 911 343 1004 b 93 825 149 1004 96 932 l 181 825 b 251 917 186 888 215 917 b 454 824 313 917 349 824 b 603 1000 544 824 601 907 l 515 1000 b 450 911 513 947 489 911 z "},"¨":{"ha":694,"x_min":0,"x_max":0,"o":"m 410 825 l 526 825 l 526 1010 l 410 1010 z m 167 825 l 283 825 l 283 1010 l 167 1010 z "},"˚":{"ha":694,"x_min":0,"x_max":0,"o":"m 347 1082 b 197 936 261 1082 197 1021 b 347 790 197 853 261 790 b 496 936 432 790 496 851 b 347 1082 496 1018 432 1082 z m 347 863 b 275 938 304 863 275 893 b 347 1010 275 979 304 1010 b 419 938 389 1010 419 981 b 347 863 419 893 389 863 z "},"¸":{"ha":694,"x_min":0,"x_max":0,"o":"m 321 -290 b 476 -172 415 -290 476 -243 b 349 -74 476 -110 428 -74 l 319 -74 l 338 10 l 282 32 l 250 -131 l 317 -131 b 385 -176 357 -131 385 -144 b 311 -224 385 -211 351 -224 b 196 -196 265 -224 233 -212 l 196 -265 b 321 -290 233 -282 267 -290 z "},"˝":{"ha":694,"x_min":0,"x_max":0,"o":"m 357 817 l 476 817 l 650 1007 l 500 1007 z m 103 817 l 224 817 l 397 1007 l 247 1007 z "},"˘":{"ha":694,"x_min":0,"x_max":0,"o":"m 471 1006 b 339 901 453 940 415 901 b 208 1006 264 901 225 940 l 118 1006 b 339 815 131 896 207 815 b 561 1006 471 815 547 896 z "},"¯":{"ha":694,"x_min":0,"x_max":0,"o":"m 136 860 l 557 860 l 557 965 l 136 965 z "},"˙":{"ha":694,"x_min":0,"x_max":0,"o":"m 414 1010 l 279 1010 l 279 825 l 414 825 z "},"·":{"ha":694,"x_min":0,"x_max":0,"o":"m 183 501 l 183 332 l 335 332 l 335 501 z "},"˛":{"ha":694,"x_min":0,"x_max":0,"o":"m 453 -214 b 363 -143 401 -214 363 -189 b 558 43 363 -79 432 -31 l 483 43 b 261 -167 388 0 261 -64 b 428 -293 261 -244 335 -293 b 561 -256 479 -293 517 -282 l 561 -175 b 453 -214 532 -196 492 -214 z "},"":{"ha":694,"x_min":0,"x_max":0,"o":"m 279 -89 l 279 -243 l 339 -243 b 276 -340 333 -279 314 -314 l 310 -368 b 418 -185 389 -324 418 -258 l 418 -89 z "},"":{"ha":694,"x_min":0,"x_max":0,"o":"m 192 986 l 192 831 l 251 831 b 189 708 246 786 226 742 l 222 681 b 331 889 304 736 331 807 l 331 986 z "},"":{"ha":694,"x_min":0,"x_max":0,"o":"m 410 815 l 410 964 l 350 964 b 413 1067 356 1000 374 1040 l 378 1094 b 271 906 297 1046 271 979 l 271 815 z "},".":{"ha":304,"x_min":0,"x_max":0,"o":"m 76 168 l 76 0 l 226 0 l 226 168 z "},",":{"ha":304,"x_min":0,"x_max":0,"o":"m 76 168 l 76 0 l 139 0 b 61 -158 139 -60 106 -115 l 96 -193 b 226 56 197 -122 226 -44 l 226 168 z "},":":{"ha":329,"x_min":0,"x_max":0,"o":"m 89 706 l 89 538 l 239 538 l 239 706 z m 89 168 l 89 0 l 239 0 l 239 168 z "},";":{"ha":329,"x_min":0,"x_max":0,"o":"m 89 706 l 89 536 l 239 536 l 239 706 z m 89 168 l 89 0 l 151 0 b 74 -158 151 -60 118 -115 l 108 -193 b 239 56 210 -122 239 -44 l 239 168 z "},"…":{"ha":914,"x_min":0,"x_max":0,"o":"m 686 168 l 686 0 l 836 0 l 836 168 z m 381 168 l 381 0 l 532 0 l 532 168 z m 76 168 l 76 0 l 226 0 l 226 168 z "},"?":{"ha":653,"x_min":0,"x_max":0,"o":"m 221 293 l 322 293 l 338 465 l 385 479 b 596 736 506 518 596 594 b 322 972 596 879 478 972 b 40 867 194 972 115 925 l 104 763 b 308 846 156 806 231 846 b 458 719 401 846 458 793 b 292 563 458 626 394 592 l 206 536 z m 193 168 l 193 0 l 344 0 l 344 168 z "},"!":{"ha":403,"x_min":0,"x_max":0,"o":"m 118 613 l 154 289 l 246 289 l 283 613 l 283 958 l 118 958 z m 122 168 l 122 0 l 272 0 l 272 168 z "},"¿":{"ha":653,"x_min":0,"x_max":0,"o":"m 457 543 l 457 713 l 307 713 l 307 543 z m 431 418 l 328 418 l 313 246 l 267 232 b 56 -24 146 194 56 117 b 329 -258 56 -165 174 -258 b 611 -154 457 -258 536 -212 l 547 -49 b 343 -133 496 -93 421 -133 b 193 -7 250 -133 193 -81 b 360 150 193 85 257 121 l 446 175 z "},"¡":{"ha":403,"x_min":0,"x_max":0,"o":"m 272 543 l 272 713 l 122 713 l 122 543 z m 118 -244 l 283 -244 l 283 99 l 246 422 l 154 422 l 118 99 z "},"(":{"ha":508,"x_min":0,"x_max":0,"o":"m 385 1035 b 82 415 183 881 82 638 b 383 -203 82 193 185 -49 l 450 -150 b 225 415 285 32 225 231 b 450 981 225 600 286 799 z "},")":{"ha":508,"x_min":0,"x_max":0,"o":"m 124 1035 l 57 981 b 282 415 222 799 282 600 b 57 -150 282 231 222 32 l 125 -203 b 426 415 322 -49 426 193 b 124 1035 426 638 324 881 z "},"{":{"ha":543,"x_min":0,"x_max":0,"o":"m 482 1028 b 143 796 240 1028 143 928 b 211 565 143 690 211 640 b 132 476 211 504 175 476 l 78 476 l 78 376 l 132 376 b 211 288 175 376 211 350 b 143 58 211 213 143 165 b 482 -174 143 -74 240 -174 l 482 -74 b 274 60 311 -74 274 -7 b 329 292 274 149 329 192 b 260 426 329 350 294 404 b 329 561 294 449 329 503 b 274 793 329 663 274 704 b 482 928 274 861 311 928 z "},"}":{"ha":543,"x_min":0,"x_max":0,"o":"m 61 928 b 269 793 231 928 269 861 b 213 561 269 704 213 663 b 282 428 213 503 247 449 b 213 292 247 404 213 350 b 269 60 213 192 269 149 b 61 -74 269 -7 231 -74 l 61 -174 b 399 58 301 -174 399 -74 b 332 288 399 165 332 213 b 410 376 332 350 368 376 l 464 376 l 464 476 l 410 476 b 332 565 368 476 332 504 b 399 796 332 640 399 690 b 61 1028 399 928 301 1028 z "},"[":{"ha":504,"x_min":0,"x_max":0,"o":"m 104 -171 l 444 -171 l 444 -67 l 229 -67 l 229 922 l 444 922 l 444 1028 l 104 1028 z "},"]":{"ha":504,"x_min":0,"x_max":0,"o":"m 399 1028 l 58 1028 l 58 922 l 274 922 l 274 -67 l 58 -67 l 58 -171 l 399 -171 z "},"/":{"ha":564,"x_min":0,"x_max":0,"o":"m 26 0 l 154 0 l 538 965 l 410 965 z "},"\\":{"ha":564,"x_min":0,"x_max":0,"o":"m 154 965 l 26 965 l 408 0 l 538 0 z "},"_":{"ha":688,"x_min":0,"x_max":0,"o":"m 31 -162 l 656 -162 l 656 -58 l 31 -58 z "},"-":{"ha":581,"x_min":0,"x_max":0,"o":"m 81 335 l 500 335 l 500 440 l 81 440 z "},"­":{"ha":581,"x_min":0,"x_max":0,"o":""},"–":{"ha":694,"x_min":0,"x_max":0,"o":"m 63 321 l 632 321 l 632 426 l 63 426 z "},"—":{"ha":1389,"x_min":0,"x_max":0,"o":"m 63 321 l 1326 321 l 1326 426 l 63 426 z "},"¦":{"ha":335,"x_min":0,"x_max":0,"o":"m 224 1069 l 111 1069 l 111 547 l 224 547 z m 224 411 l 111 411 l 111 -111 l 224 -111 z "},"|":{"ha":335,"x_min":0,"x_max":0,"o":"m 224 1069 l 111 1069 l 111 -111 l 224 -111 z "},"«":{"ha":846,"x_min":0,"x_max":0,"o":"m 406 313 l 707 46 l 760 99 l 533 346 l 760 593 l 707 647 l 406 381 z m 68 313 l 369 46 l 422 99 l 196 346 l 422 593 l 369 647 l 68 381 z "},"»":{"ha":846,"x_min":0,"x_max":0,"o":"m 776 381 l 476 647 l 422 593 l 650 346 l 422 99 l 476 46 l 776 313 z m 439 381 l 139 647 l 85 593 l 313 346 l 85 99 l 139 46 l 439 313 z "},"‹":{"ha":508,"x_min":0,"x_max":0,"o":"m 68 313 l 369 46 l 422 99 l 196 346 l 422 593 l 369 647 l 68 381 z "},"›":{"ha":508,"x_min":0,"x_max":0,"o":"m 439 381 l 139 647 l 85 593 l 313 346 l 85 99 l 139 46 l 439 313 z "},"‚":{"ha":304,"x_min":0,"x_max":0,"o":"m 76 168 l 76 0 l 143 0 b 64 -104 136 -44 114 -76 l 64 -165 b 226 53 165 -129 226 -46 l 226 168 z "},"„":{"ha":553,"x_min":0,"x_max":0,"o":"m 325 168 l 325 0 l 392 0 b 313 -104 385 -44 361 -76 l 313 -165 b 475 53 414 -129 475 -46 l 475 168 z m 76 168 l 76 0 l 143 0 b 64 -104 136 -44 114 -76 l 64 -165 b 226 53 165 -129 226 -46 l 226 168 z "},"‘":{"ha":304,"x_min":0,"x_max":0,"o":"m 226 644 l 226 814 l 160 814 b 239 918 168 858 190 892 l 239 981 b 76 761 138 944 76 860 l 76 644 z "},"“":{"ha":549,"x_min":0,"x_max":0,"o":"m 471 644 l 471 814 l 404 814 b 483 918 413 858 435 892 l 483 981 b 321 761 382 944 321 860 l 321 644 z m 226 644 l 226 814 l 160 814 b 239 918 168 858 190 892 l 239 981 b 76 761 138 944 76 860 l 76 644 z "},"’":{"ha":304,"x_min":0,"x_max":0,"o":"m 76 958 l 76 789 l 143 789 b 64 683 136 744 114 711 l 64 622 b 226 842 165 658 226 743 l 226 958 z "},"”":{"ha":549,"x_min":0,"x_max":0,"o":"m 321 958 l 321 789 l 388 789 b 308 683 381 744 358 711 l 308 622 b 471 842 410 658 471 743 l 471 958 z m 76 958 l 76 789 l 143 789 b 64 683 136 744 114 711 l 64 622 b 226 842 165 658 226 743 l 226 958 z "},"'":{"ha":253,"x_min":0,"x_max":0,"o":"m 81 685 l 171 685 l 186 958 l 67 958 z "},"\"":{"ha":472,"x_min":0,"x_max":0,"o":"m 300 685 l 390 685 l 404 958 l 285 958 z m 81 685 l 171 685 l 186 958 l 67 958 z "},"•":{"ha":410,"x_min":0,"x_max":0,"o":"m 340 429 b 206 564 340 507 285 564 b 69 429 125 564 69 507 b 206 292 69 349 125 292 b 340 429 285 292 340 349 z "},"&":{"ha":985,"x_min":0,"x_max":0,"o":"m 840 -14 l 928 71 l 810 179 b 924 379 854 236 892 303 l 810 415 b 724 258 790 358 761 304 l 476 486 b 714 750 617 540 714 618 b 436 972 714 867 611 972 b 150 728 244 972 150 856 b 275 504 150 633 204 568 b 68 253 150 460 68 379 b 415 -14 68 74 233 -14 b 724 93 536 -14 639 24 z m 290 726 b 436 860 290 804 346 860 b 575 736 514 860 575 811 b 413 546 575 654 525 607 b 290 726 349 606 290 661 z m 429 108 b 210 272 308 108 210 168 b 343 442 210 349 254 408 l 635 175 b 429 108 576 133 507 108 z "},"¶":{"ha":713,"x_min":0,"x_max":0,"o":"m 442 0 l 442 874 l 525 874 l 525 0 l 604 0 l 604 958 l 326 958 b 68 693 169 958 68 846 b 326 425 68 536 169 425 l 363 425 l 363 0 z "},"†":{"ha":765,"x_min":0,"x_max":0,"o":"m 689 513 l 689 643 l 444 632 l 444 958 l 321 958 l 321 632 l 75 643 l 75 513 l 321 526 l 321 -174 l 444 -174 l 444 526 z "},"‡":{"ha":765,"x_min":0,"x_max":0,"o":"m 689 125 l 689 256 l 444 244 l 444 542 l 689 528 l 689 658 l 444 647 l 444 958 l 321 958 l 321 647 l 75 658 l 75 528 l 321 542 l 321 244 l 75 256 l 75 125 l 321 139 l 321 -174 l 444 -174 l 444 139 z "},"§":{"ha":693,"x_min":0,"x_max":0,"o":"m 388 385 b 183 521 240 428 183 454 b 247 613 183 558 207 592 b 306 593 265 606 285 599 b 510 457 453 549 510 524 b 446 365 510 419 486 386 b 388 385 428 372 408 379 z m 328 -14 b 611 192 490 -14 611 60 b 532 325 611 249 585 290 b 632 482 589 357 632 408 b 392 685 632 593 550 639 b 218 789 260 724 218 739 b 368 881 218 849 271 881 b 585 824 451 881 529 856 l 585 944 b 364 993 532 972 458 993 b 81 785 201 993 81 917 b 161 653 81 729 107 688 b 61 496 104 619 61 569 b 300 293 61 385 143 338 b 475 188 433 253 475 239 b 325 96 475 128 422 96 b 107 154 240 96 163 121 l 107 32 b 328 -14 161 6 233 -14 z "},"*":{"ha":574,"x_min":0,"x_max":0,"o":"m 242 996 l 254 801 l 93 879 l 50 794 l 233 735 l 104 596 l 174 536 l 288 692 l 401 535 l 472 594 l 340 735 l 522 794 l 481 879 l 321 801 l 332 996 z "},"™":{"ha":881,"x_min":0,"x_max":0,"o":"m 344 894 l 344 958 l 42 958 l 42 894 l 160 894 l 160 581 l 231 581 l 231 894 z m 733 958 l 608 774 l 483 958 l 413 958 l 413 581 l 483 581 l 483 849 l 585 700 l 631 700 l 732 847 l 732 581 l 801 581 l 801 958 z "},"®":{"ha":722,"x_min":0,"x_max":0,"o":"m 671 668 b 361 972 671 836 532 972 b 51 668 188 972 51 836 b 361 363 51 499 188 363 b 671 668 533 363 671 499 z m 117 668 b 361 911 117 808 218 911 b 604 668 501 911 604 808 b 361 422 604 525 501 422 b 117 668 218 422 117 525 z m 306 771 l 375 771 b 428 728 407 771 428 754 b 375 683 428 697 407 683 l 306 683 z m 429 524 l 494 524 l 415 644 b 485 729 457 656 485 685 b 375 819 485 785 444 819 l 251 819 l 251 524 l 306 524 l 306 638 l 360 638 z "},"©":{"ha":1103,"x_min":0,"x_max":0,"o":"m 1050 479 b 551 972 1050 751 824 972 b 53 479 278 972 53 751 b 551 -14 53 206 278 -14 b 1050 479 824 -14 1050 206 z m 144 479 b 551 886 144 701 311 886 b 958 479 785 886 958 701 b 551 71 958 254 781 71 b 144 479 311 71 144 254 z m 697 706 b 574 735 669 722 633 735 b 314 482 428 735 314 626 b 578 229 314 333 421 229 b 697 256 644 229 672 243 l 697 333 b 585 310 656 313 619 310 b 407 482 474 310 407 375 b 579 651 407 585 474 651 b 697 622 625 651 657 644 z "},"@":{"ha":1367,"x_min":0,"x_max":0,"o":"m 1044 -125 b 722 -186 939 -164 838 -186 b 171 306 401 -186 171 -14 b 689 811 171 599 365 811 b 1196 360 971 811 1196 635 b 1054 79 1196 201 1139 79 b 964 190 994 79 964 129 l 964 614 l 842 614 l 842 525 b 639 621 786 589 719 621 b 349 303 474 621 349 483 b 631 -14 349 133 449 -14 b 856 97 736 -14 811 40 b 1032 -14 885 29 935 -14 b 1306 367 1165 -14 1306 124 b 686 908 1306 676 1049 908 b 61 308 310 908 61 656 b 721 -283 61 -53 329 -283 b 1074 -211 874 -283 1000 -246 z m 842 196 b 663 93 807 128 731 93 b 478 304 557 93 478 181 b 665 513 478 425 556 513 b 842 410 736 513 807 474 z "},"ª":{"ha":553,"x_min":0,"x_max":0,"o":"m 376 729 l 376 672 b 260 604 353 632 311 604 b 163 685 208 604 163 633 b 261 767 163 733 200 767 b 376 729 308 767 349 751 z m 124 933 l 124 861 b 258 901 167 888 211 901 b 375 797 336 901 375 868 l 375 778 b 233 821 336 803 293 821 b 71 679 131 821 71 756 b 225 538 71 594 142 538 b 378 617 292 538 346 569 l 378 544 l 464 544 l 464 801 b 274 972 464 908 401 972 b 124 933 213 972 161 956 z m 50 364 l 501 364 l 501 446 l 50 446 z "},"º":{"ha":553,"x_min":0,"x_max":0,"o":"m 60 753 b 276 538 60 625 147 538 b 493 753 406 538 493 625 b 276 972 493 882 406 972 b 60 753 147 972 60 882 z m 151 754 b 276 890 151 836 200 890 b 400 754 353 890 400 836 b 276 619 400 674 353 619 b 151 754 200 619 151 674 z m 50 364 l 501 364 l 501 446 l 50 446 z "},"":{"ha":653,"x_min":0,"x_max":0,"o":"m 457 789 l 457 958 l 307 958 l 307 789 z m 431 664 l 328 664 l 313 492 l 267 478 b 56 221 146 439 56 363 b 329 -14 56 78 174 -14 b 611 90 457 -14 536 32 l 547 194 b 343 111 496 151 421 111 b 193 238 250 111 193 164 b 360 394 193 331 257 367 l 446 421 z "},"":{"ha":403,"x_min":0,"x_max":0,"o":"m 272 789 l 272 958 l 122 958 l 122 789 z m 118 0 l 283 0 l 283 344 l 246 668 l 154 668 l 118 344 z "},"":{"ha":508,"x_min":0,"x_max":0,"o":"m 385 1088 b 82 467 183 932 82 689 b 383 -151 82 244 185 3 l 450 -99 b 225 467 285 83 225 282 b 450 1033 225 651 286 850 z "},"":{"ha":508,"x_min":0,"x_max":0,"o":"m 124 1088 l 57 1033 b 282 467 222 850 282 651 b 57 -99 282 282 222 83 l 125 -151 b 426 467 322 3 426 244 b 124 1088 426 689 324 932 z "},"":{"ha":543,"x_min":0,"x_max":0,"o":"m 482 1079 b 143 847 240 1079 143 979 b 211 617 143 742 211 692 b 132 529 211 556 175 529 l 78 529 l 78 428 l 132 428 b 211 340 175 428 211 401 b 143 110 211 264 143 217 b 482 -121 143 -22 240 -121 l 482 -22 b 274 111 311 -22 274 44 b 329 344 274 201 329 243 b 260 479 329 401 294 456 b 329 613 294 500 329 554 b 274 844 329 714 274 756 b 482 981 274 913 311 981 z "},"":{"ha":543,"x_min":0,"x_max":0,"o":"m 61 981 b 269 844 231 981 269 913 b 213 613 269 756 213 714 b 282 479 213 554 247 500 b 213 344 247 456 213 401 b 269 111 213 243 269 201 b 61 -22 269 44 231 -22 l 61 -121 b 399 110 301 -121 399 -22 b 332 340 399 217 332 264 b 410 428 332 401 368 428 l 464 428 l 464 529 l 410 529 b 332 617 368 529 332 556 b 399 847 332 692 399 742 b 61 1079 399 979 301 1079 z "},"":{"ha":504,"x_min":0,"x_max":0,"o":"m 104 -119 l 444 -119 l 444 -14 l 229 -14 l 229 974 l 444 974 l 444 1079 l 104 1079 z "},"":{"ha":504,"x_min":0,"x_max":0,"o":"m 399 1079 l 58 1079 l 58 974 l 274 974 l 274 -14 l 58 -14 l 58 -119 l 399 -119 z "},"":{"ha":581,"x_min":0,"x_max":0,"o":"m 81 413 l 500 413 l 500 517 l 81 517 z "},"":{"ha":694,"x_min":0,"x_max":0,"o":"m 63 399 l 632 399 l 632 503 l 63 503 z "},"":{"ha":1389,"x_min":0,"x_max":0,"o":"m 63 399 l 1326 399 l 1326 503 l 63 503 z "},"":{"ha":508,"x_min":0,"x_max":0,"o":"m 68 417 l 369 151 l 422 204 l 196 451 l 422 699 l 369 751 l 68 486 z "},"":{"ha":508,"x_min":0,"x_max":0,"o":"m 439 486 l 139 751 l 85 699 l 313 451 l 85 204 l 139 151 l 439 417 z "},"":{"ha":846,"x_min":0,"x_max":0,"o":"m 406 417 l 707 151 l 760 204 l 533 451 l 760 699 l 707 751 l 406 486 z m 68 417 l 369 151 l 422 204 l 196 451 l 422 699 l 369 751 l 68 486 z "},"":{"ha":846,"x_min":0,"x_max":0,"o":"m 776 486 l 476 751 l 422 699 l 650 451 l 422 204 l 476 151 l 776 417 z m 439 486 l 139 751 l 85 699 l 313 451 l 85 204 l 139 151 l 439 417 z "},"":{"ha":410,"x_min":0,"x_max":0,"o":"m 340 490 b 206 626 340 569 285 626 b 69 490 125 626 69 569 b 206 354 69 411 125 354 b 340 490 285 354 340 411 z "},"":{"ha":1367,"x_min":0,"x_max":0,"o":"m 1044 15 b 722 -46 939 -24 838 -46 b 171 446 401 -46 171 126 b 689 951 171 739 365 951 b 1196 500 971 951 1196 775 b 1054 219 1196 342 1139 219 b 964 331 994 219 964 269 l 964 754 l 842 754 l 842 665 b 639 761 786 729 719 761 b 349 443 474 761 349 624 b 631 126 349 274 449 126 b 856 238 736 126 811 181 b 1032 126 885 169 935 126 b 1306 507 1165 126 1306 264 b 686 1049 1306 817 1049 1049 b 61 449 310 1049 61 796 b 721 -143 61 88 329 -143 b 1074 -71 874 -143 1000 -106 z m 842 336 b 663 233 807 268 731 233 b 478 444 557 233 478 321 b 665 653 478 565 556 653 b 842 550 736 653 807 614 z "},"#":{"ha":1011,"x_min":0,"x_max":0,"o":"m 575 375 l 360 375 l 433 578 l 650 578 z m 438 0 l 557 0 l 656 269 l 869 269 l 869 375 l 694 375 l 768 578 l 975 578 l 975 683 l 807 683 l 907 958 l 789 958 l 688 683 l 472 683 l 572 958 l 454 958 l 353 683 l 142 683 l 142 578 l 315 578 l 240 375 l 36 375 l 36 269 l 201 269 l 103 0 l 222 0 l 321 269 l 536 269 z "},"€":{"ha":928,"x_min":0,"x_max":0,"o":"m 867 39 l 867 168 b 649 117 804 136 733 117 b 322 342 467 117 361 203 l 710 342 l 721 429 l 307 429 b 304 481 306 446 304 463 b 306 526 304 496 304 511 l 735 526 l 747 614 l 321 614 b 643 840 360 753 465 840 b 860 793 724 840 790 822 l 860 921 b 631 972 799 951 738 972 b 169 614 385 972 218 828 l 67 614 l 56 526 l 157 526 b 156 481 156 511 156 496 b 157 429 156 463 156 446 l 42 429 l 31 342 l 171 342 b 617 -14 218 126 382 -14 b 867 39 726 -14 800 7 z "},"$":{"ha":756,"x_min":0,"x_max":0,"o":"m 228 726 b 318 835 228 781 264 818 l 318 597 b 228 726 256 633 228 669 z m 535 247 b 413 119 535 178 489 135 l 413 399 b 535 247 499 351 535 313 z m 413 -114 l 413 -10 b 685 257 571 10 685 103 b 413 551 685 399 606 471 l 413 844 b 621 785 472 840 549 824 l 621 915 b 413 972 558 950 489 968 l 413 1085 l 318 1085 l 318 967 b 79 717 167 944 79 847 b 318 443 79 581 161 517 l 318 114 b 79 199 239 118 154 146 l 79 64 b 318 -12 138 19 229 -8 l 318 -114 z "},"¥":{"ha":950,"x_min":0,"x_max":0,"o":"m 818 244 l 818 331 l 546 331 l 546 392 l 567 424 l 818 424 l 818 511 l 625 511 l 924 958 l 764 958 l 475 511 l 186 958 l 26 958 l 324 511 l 122 511 l 122 424 l 382 424 l 403 392 l 403 331 l 122 331 l 122 244 l 403 244 l 403 0 l 546 0 l 546 244 z "},"£":{"ha":761,"x_min":0,"x_max":0,"o":"m 707 126 l 293 126 b 415 314 371 165 415 231 b 389 428 415 357 404 393 l 588 428 l 588 515 l 339 515 b 275 683 306 568 275 619 b 467 840 275 779 350 840 b 633 801 528 840 582 829 l 633 932 b 447 972 593 956 542 972 b 126 694 269 972 126 868 b 182 515 126 624 153 567 l 74 515 l 74 428 l 235 428 b 275 290 257 386 275 342 b 101 126 275 203 226 126 l 76 126 l 76 0 l 707 0 z "},"¢":{"ha":722,"x_min":0,"x_max":0,"o":"m 656 50 l 656 169 b 456 101 594 125 539 101 l 456 610 b 646 544 546 610 610 576 l 646 665 b 456 726 604 700 540 722 l 456 836 l 361 836 l 361 721 b 61 356 176 692 61 550 b 361 -8 61 161 176 19 l 361 -114 l 456 -114 l 456 -14 b 656 50 549 -8 614 19 z m 199 356 b 361 596 199 475 256 564 l 361 114 b 199 356 254 146 199 236 z "},"ƒ":{"ha":744,"x_min":0,"x_max":0,"o":"m 707 956 b 611 972 679 965 654 972 b 326 682 454 972 361 872 l 299 519 l 164 519 l 150 433 l 286 433 l 232 114 b 111 -22 219 36 192 -22 b 21 -10 81 -22 51 -18 l 21 -136 b 128 -153 56 -149 88 -153 b 371 111 256 -153 343 -64 l 422 433 l 600 433 l 614 519 l 439 519 l 461 656 b 624 843 482 786 526 843 b 707 829 651 843 682 838 z "},"¤":{"ha":833,"x_min":0,"x_max":0,"o":"m 708 153 l 768 213 l 653 326 b 708 506 688 375 708 436 b 654 682 708 574 689 635 l 767 794 l 707 854 l 594 742 b 418 796 546 775 486 796 b 239 739 349 796 286 775 l 124 854 l 65 794 l 179 679 b 128 506 147 632 128 572 b 182 328 128 436 147 376 l 65 213 l 126 153 l 242 268 b 417 215 289 235 349 215 b 593 268 485 215 544 235 z m 418 693 b 606 506 528 692 606 617 b 415 319 606 394 528 319 b 231 506 307 319 231 394 b 418 693 231 617 307 693 z "},"°":{"ha":472,"x_min":0,"x_max":0,"o":"m 235 585 b 431 776 347 585 431 665 b 235 972 431 889 347 972 b 40 776 124 972 40 889 b 235 585 40 664 124 585 z m 235 892 b 346 776 299 892 346 840 b 235 664 346 715 299 664 b 125 776 172 664 125 715 b 235 892 125 840 172 892 z "},"%":{"ha":1283,"x_min":0,"x_max":0,"o":"m 47 696 b 285 421 47 529 144 421 b 522 696 425 421 522 532 b 285 972 522 861 425 972 b 47 696 144 972 47 861 z m 318 0 l 426 0 l 965 958 l 863 958 z m 414 696 b 285 518 414 583 369 518 b 156 696 200 518 156 583 b 285 872 156 807 200 872 b 414 696 369 872 414 807 z m 760 274 b 997 -1 760 107 857 -1 b 1235 274 1138 -1 1235 110 b 997 550 1235 439 1138 550 b 760 274 857 550 760 439 z m 1126 274 b 997 96 1126 161 1082 96 b 868 274 913 96 868 161 b 997 450 868 385 913 450 b 1126 274 1082 450 1126 385 z "},"‰":{"ha":1854,"x_min":0,"x_max":0,"o":"m 47 696 b 285 421 47 529 144 421 b 522 696 425 421 522 532 b 285 972 522 861 425 972 b 47 696 144 972 47 861 z m 318 0 l 426 0 l 965 958 l 863 958 z m 414 696 b 285 518 414 583 369 518 b 156 696 200 518 156 583 b 285 872 156 807 200 872 b 414 696 369 872 414 807 z m 1331 274 b 1568 -1 1331 107 1428 -1 b 1806 274 1708 -1 1806 110 b 1568 550 1806 439 1708 550 b 1331 274 1428 550 1331 439 z m 760 274 b 997 -1 760 107 857 -1 b 1235 274 1138 -1 1235 110 b 997 550 1235 439 1138 550 b 760 274 857 550 760 439 z m 1697 274 b 1568 96 1697 161 1653 96 b 1439 274 1483 96 1439 161 b 1568 450 1439 385 1483 450 b 1697 274 1653 450 1697 385 z m 1126 274 b 997 96 1126 161 1082 96 b 868 274 913 96 868 161 b 997 450 868 385 913 450 b 1126 274 1082 450 1126 385 z "},"⁄":{"ha":142,"x_min":0,"x_max":0,"o":"m -253 0 l -144 0 l 394 958 l 292 958 z "},"∕":{"ha":142,"x_min":0,"x_max":0,"o":"m -253 0 l -144 0 l 394 958 l 292 958 z "},"⁰":{"ha":571,"x_min":0,"x_max":0,"o":"m 47 696 b 285 421 47 529 144 421 b 522 696 425 421 522 532 b 285 972 522 861 425 972 b 47 696 144 972 47 861 z m 414 696 b 285 518 414 583 369 518 b 156 696 200 518 156 583 b 285 872 156 807 200 872 b 414 696 369 872 414 807 z "},"¹":{"ha":571,"x_min":0,"x_max":0,"o":"m 269 961 l 171 908 l 171 810 l 263 853 l 263 422 l 368 422 l 368 961 z "},"²":{"ha":571,"x_min":0,"x_max":0,"o":"m 121 833 b 260 876 165 863 208 876 b 349 811 322 876 349 844 b 272 706 349 772 331 751 l 185 636 b 96 464 121 585 96 528 l 96 428 l 464 428 l 464 522 l 218 522 b 274 596 219 544 240 569 l 356 664 b 454 826 414 711 454 757 b 278 972 454 910 382 972 b 121 936 215 972 163 956 z "},"³":{"ha":571,"x_min":0,"x_max":0,"o":"m 117 454 b 268 421 160 431 213 421 b 476 578 381 421 476 482 b 379 701 476 644 432 685 b 469 824 428 718 469 758 b 276 972 469 913 382 972 b 121 931 211 972 160 956 l 121 832 b 269 872 161 856 215 872 b 368 807 329 872 368 847 b 272 736 368 761 333 736 l 193 736 l 193 665 l 271 665 b 371 593 333 665 371 640 b 258 518 371 546 332 518 b 117 553 219 518 175 525 z "},"⁴":{"ha":571,"x_min":0,"x_max":0,"o":"m 376 960 l 269 960 l 71 601 l 71 515 l 347 515 l 347 424 l 446 424 l 446 515 l 515 515 l 515 604 l 446 604 l 446 761 l 346 706 l 346 604 l 179 604 z "},"½":{"ha":1283,"x_min":0,"x_max":0,"o":"m 269 961 l 171 908 l 171 810 l 263 853 l 263 422 l 368 422 l 368 961 z m 301 0 l 410 0 l 949 958 l 846 958 z m 833 411 b 972 454 878 440 921 454 b 1061 389 1035 454 1061 422 b 985 283 1061 350 1043 329 l 897 214 b 808 42 833 163 808 106 l 808 6 l 1176 6 l 1176 100 l 931 100 b 986 174 932 122 953 147 l 1068 242 b 1167 404 1126 289 1167 335 b 990 550 1167 488 1094 550 b 833 514 928 550 875 533 z "},"¼":{"ha":1283,"x_min":0,"x_max":0,"o":"m 269 961 l 171 908 l 171 810 l 263 853 l 263 422 l 368 422 l 368 961 z m 322 0 l 431 0 l 969 958 l 867 958 z m 1089 538 l 982 538 l 783 179 l 783 93 l 1060 93 l 1060 1 l 1158 1 l 1158 93 l 1228 93 l 1228 182 l 1158 182 l 1158 339 l 1058 283 l 1058 182 l 892 182 z "},"¾":{"ha":1283,"x_min":0,"x_max":0,"o":"m 336 0 l 444 0 l 983 958 l 881 958 z m 117 454 b 268 421 160 431 213 421 b 476 578 381 421 476 482 b 379 701 476 644 432 685 b 469 824 428 718 469 758 b 276 972 469 913 382 972 b 121 931 211 972 160 956 l 121 832 b 269 872 161 856 215 872 b 368 807 329 872 368 847 b 272 736 368 761 333 736 l 193 736 l 193 665 l 271 665 b 371 593 333 665 371 640 b 258 518 371 546 332 518 b 117 553 219 518 175 525 z m 1089 538 l 982 538 l 783 179 l 783 93 l 1060 93 l 1060 1 l 1158 1 l 1158 93 l 1228 93 l 1228 182 l 1158 182 l 1158 339 l 1058 283 l 1058 182 l 892 182 z "},"+":{"ha":793,"x_min":0,"x_max":0,"o":"m 453 528 l 453 821 l 339 821 l 339 528 l 61 528 l 61 422 l 339 422 l 339 124 l 453 124 l 453 422 l 731 422 l 731 528 z "},"−":{"ha":793,"x_min":0,"x_max":0,"o":"m 61 528 l 61 422 l 731 422 l 731 528 z "},"×":{"ha":793,"x_min":0,"x_max":0,"o":"m 390 547 l 185 754 l 110 679 l 317 474 l 108 265 l 183 192 l 390 399 l 603 188 l 678 261 l 465 474 l 675 683 l 600 757 z "},"÷":{"ha":793,"x_min":0,"x_max":0,"o":"m 325 811 l 325 654 l 463 654 l 463 811 z m 61 528 l 61 422 l 731 422 l 731 528 z m 325 296 l 325 139 l 463 139 l 463 296 z "},"=":{"ha":793,"x_min":0,"x_max":0,"o":"m 61 654 l 61 550 l 731 550 l 731 654 z m 61 404 l 61 299 l 731 299 l 731 404 z "},"¬":{"ha":793,"x_min":0,"x_max":0,"o":"m 61 528 l 61 422 l 618 422 l 618 121 l 731 121 l 731 528 z "},"~":{"ha":793,"x_min":0,"x_max":0,"o":"m 61 535 l 61 428 b 219 464 100 442 153 464 b 564 401 335 464 440 401 b 731 446 638 401 683 422 l 731 551 b 568 507 690 529 633 507 b 219 569 449 507 332 569 b 61 535 142 569 94 549 z "},"<":{"ha":793,"x_min":0,"x_max":0,"o":"m 61 529 l 61 419 l 731 106 l 731 232 l 203 475 l 731 715 l 731 842 z "},">":{"ha":793,"x_min":0,"x_max":0,"o":"m 61 715 l 589 475 l 61 232 l 61 106 l 731 419 l 731 529 l 61 842 z "},"±":{"ha":793,"x_min":0,"x_max":0,"o":"m 450 586 l 450 861 l 338 861 l 338 586 l 61 586 l 61 482 l 338 482 l 338 204 l 450 204 l 450 482 l 731 482 l 731 586 z m 61 104 l 61 0 l 731 0 l 731 104 z "},"^":{"ha":793,"x_min":0,"x_max":0,"o":"m 74 347 l 194 347 l 401 822 l 608 347 l 729 347 l 453 958 l 349 958 z "},"≠":{"ha":793,"x_min":0,"x_max":0,"o":"m 731 299 l 731 404 l 418 404 l 483 550 l 731 550 l 731 654 l 531 654 l 619 851 l 507 851 l 418 654 l 61 654 l 61 550 l 372 550 l 307 404 l 61 404 l 61 299 l 260 299 l 174 107 l 285 107 l 371 299 z "},"≈":{"ha":793,"x_min":0,"x_max":0,"o":"m 61 658 l 61 553 b 219 588 101 567 153 588 b 564 525 335 588 440 525 b 731 569 638 525 683 547 l 731 675 b 568 631 690 653 633 631 b 219 693 449 631 332 693 b 61 658 142 693 94 672 z m 61 410 l 61 304 b 219 340 101 318 153 340 b 564 278 335 340 440 278 b 731 322 638 278 683 299 l 731 428 b 568 383 690 406 633 383 b 219 446 449 383 332 446 b 61 410 142 446 94 424 z "},"≤":{"ha":793,"x_min":0,"x_max":0,"o":"m 61 586 l 61 475 l 731 199 l 731 314 l 207 531 l 731 746 l 731 860 z m 61 104 l 61 0 l 731 0 l 731 104 z "},"≥":{"ha":793,"x_min":0,"x_max":0,"o":"m 61 860 l 61 746 l 585 531 l 61 314 l 61 199 l 731 475 l 731 586 z m 61 104 l 61 0 l 731 0 l 731 104 z "},"∞":{"ha":1113,"x_min":0,"x_max":0,"o":"m 286 663 b 63 440 163 663 63 565 b 301 222 63 315 154 222 b 549 365 407 222 490 288 b 796 222 601 294 685 222 b 1033 440 943 222 1033 315 b 811 663 1033 565 933 663 b 550 507 682 663 608 581 b 286 663 493 578 418 663 z m 597 440 b 796 568 653 518 725 568 b 931 440 879 568 931 514 b 790 313 931 365 868 313 b 597 440 706 313 649 368 z m 167 440 b 300 568 167 514 217 568 b 499 436 368 568 442 515 b 306 313 446 363 386 313 b 167 440 231 313 167 365 z "},"◊":{"ha":739,"x_min":0,"x_max":0,"o":"m 690 481 l 428 958 l 308 958 l 47 481 l 308 0 l 428 0 z m 561 481 l 368 121 l 176 481 l 368 836 z "},"√":{"ha":789,"x_min":0,"x_max":0,"o":"m 396 0 l 765 994 l 647 1028 l 338 157 l 217 474 l 33 474 l 33 347 l 131 347 l 271 0 z "},"∫":{"ha":760,"x_min":0,"x_max":0,"o":"m 729 1025 b 632 1042 701 1035 675 1042 b 353 750 475 1042 378 940 l 244 -22 b 122 -160 233 -100 203 -160 b 31 -147 90 -160 63 -156 l 31 -274 b 139 -292 67 -286 97 -292 b 381 -25 265 -292 360 -203 l 482 725 b 644 913 500 856 547 913 b 729 899 672 913 703 907 z "},"∂":{"ha":868,"x_min":0,"x_max":0,"o":"m 363 943 b 643 604 528 828 615 706 b 400 726 594 669 518 726 b 57 354 217 726 57 569 b 432 -14 57 142 213 -14 b 803 406 636 -14 803 149 b 435 1028 803 681 664 871 z m 196 356 b 431 603 196 501 296 603 b 664 367 561 603 664 506 b 431 108 664 210 568 108 b 196 356 296 108 196 210 z "},"∏":{"ha":997,"x_min":0,"x_max":0,"o":"m 115 958 l 115 -208 l 258 -208 l 258 831 l 739 831 l 739 -208 l 882 -208 l 882 958 z "},"π":{"ha":1022,"x_min":0,"x_max":0,"o":"m 799 -14 b 958 47 864 -14 918 11 l 907 138 b 829 103 885 115 856 103 b 765 194 786 103 765 136 l 765 600 l 956 600 l 956 713 l 258 713 b 47 560 122 713 47 657 b 69 447 47 531 53 490 l 176 447 b 160 525 165 474 160 503 b 264 600 160 568 189 600 l 324 600 l 278 0 l 408 0 l 453 600 l 631 600 l 631 190 b 799 -14 631 57 689 -14 z "},"µ":{"ha":943,"x_min":0,"x_max":0,"o":"m 346 -14 b 610 128 461 -14 560 60 b 778 -14 626 35 686 -14 b 926 40 836 -14 886 4 l 875 131 b 810 103 858 113 835 103 b 743 194 765 103 743 136 l 743 713 l 604 713 l 604 228 b 399 110 581 186 508 110 b 250 260 296 110 250 156 l 250 711 l 108 711 l 108 -278 l 242 -278 l 242 11 b 346 -14 263 0 307 -14 z "},"∑":{"ha":779,"x_min":0,"x_max":0,"o":"m 376 351 l 56 -89 l 56 -208 l 726 -208 l 726 -81 l 225 -81 l 538 351 l 225 831 l 726 831 l 726 958 l 56 958 l 56 839 z "},"Ω":{"ha":1088,"x_min":0,"x_max":0,"o":"m 86 118 l 86 0 l 478 0 l 478 118 b 206 485 299 185 206 322 b 544 840 206 699 349 840 b 883 485 740 840 883 699 b 615 118 883 324 792 186 l 615 0 l 1001 0 l 1001 118 l 772 118 b 1025 510 936 189 1025 325 b 544 972 1025 767 822 972 b 63 510 267 972 63 767 b 318 118 63 325 153 189 z "},"Ω":{"ha":1088,"x_min":0,"x_max":0,"o":"m 86 118 l 86 0 l 478 0 l 478 118 b 206 485 299 185 206 322 b 544 840 206 699 349 840 b 883 485 740 840 883 699 b 615 118 883 324 792 186 l 615 0 l 1001 0 l 1001 118 l 772 118 b 1025 510 936 189 1025 325 b 544 972 1025 767 822 972 b 63 510 267 972 63 767 b 318 118 63 325 153 189 z "},"∆":{"ha":983,"x_min":0,"x_max":0,"o":"m 964 0 l 547 958 l 433 958 l 19 0 z m 217 126 l 490 772 l 767 126 z "},"Δ":{"ha":983,"x_min":0,"x_max":0,"o":"m 964 0 l 547 958 l 433 958 l 19 0 z m 217 126 l 490 772 l 767 126 z "},"ℓ":{"ha":768,"x_min":0,"x_max":0,"o":"m 390 -14 b 646 143 494 -14 586 42 l 578 208 b 413 89 528 124 472 89 b 278 303 333 89 278 144 l 278 319 b 728 857 590 511 728 675 b 557 1042 728 968 663 1042 b 157 353 353 1042 172 722 b 15 275 114 326 65 300 l 54 193 b 158 250 90 213 126 231 b 390 -14 174 83 251 -14 z m 550 938 b 619 840 590 938 619 903 b 290 435 619 718 518 582 b 550 938 317 704 440 938 z "},"℮":{"ha":1144,"x_min":0,"x_max":0,"o":"m 1097 419 l 1097 432 b 597 882 1097 681 874 882 b 97 432 321 882 97 681 b 597 -18 97 183 321 -18 b 993 157 758 -18 903 51 l 921 157 b 599 8 842 67 728 8 b 292 142 478 8 369 60 b 281 169 285 149 281 158 l 281 414 b 288 419 281 418 283 419 z m 914 451 b 908 444 914 449 913 444 l 288 444 b 281 451 283 444 281 449 l 281 693 b 293 724 281 706 285 715 b 599 856 371 804 479 856 b 901 728 717 856 824 806 b 914 699 910 719 914 710 z "},"♥":{"ha":836,"x_min":0,"x_max":0,"o":"m 413 604 b 276 694 383 658 333 694 b 139 549 197 694 139 633 b 418 188 139 439 239 279 b 697 549 597 279 697 439 b 560 694 697 633 639 694 b 424 604 503 694 453 658 z "}}}
